<svg xmlns="http://www.w3.org/2000/svg" width="15.773" height="13.755" viewBox="0 0 15.773 13.755">
  <path id="Vector" d="M6.953,1.145a1.155,1.155,0,0,1-.33.81L2.914,5.725l11.731.008a1.117,1.117,0,0,1,.8.335,1.158,1.158,0,0,1,0,1.619,1.117,1.117,0,0,1-.8.335L2.913,8.016l3.71,3.771a1.146,1.146,0,0,1,.252.372,1.162,1.162,0,0,1,.008.886,1.147,1.147,0,0,1-.246.376,1.125,1.125,0,0,1-.37.25,1.11,1.11,0,0,1-.871-.008,1.126,1.126,0,0,1-.366-.257L.99,9.3A3.44,3.44,0,0,1,.257,8.186a3.488,3.488,0,0,1,0-2.63A3.44,3.44,0,0,1,.99,4.442L5.03.335a1.114,1.114,0,0,1,1.593,0A1.155,1.155,0,0,1,6.953,1.145Z" fill="#0092dc"/>
</svg>
