<svg xmlns="http://www.w3.org/2000/svg" xmlns:xlink="http://www.w3.org/1999/xlink" width="1439.999" height="596.381" viewBox="0 0 1439.999 596.381">
  <defs>
    <clipPath id="clip-path">
      <path id="Subtraction_6" data-name="Subtraction 6" d="M-7313-2529h0v-248a124.909,124.909,0,0,1,24.99,2.519,123.367,123.367,0,0,1,23.276,7.225,124.025,124.025,0,0,1,21.063,11.433,124.869,124.869,0,0,1,18.352,15.141,124.878,124.878,0,0,1,15.142,18.352,124.028,124.028,0,0,1,11.433,21.063,123.4,123.4,0,0,1,7.225,23.276A124.947,124.947,0,0,1-7189-2653a124.947,124.947,0,0,1-2.519,24.99,123.4,123.4,0,0,1-7.225,23.276,124.058,124.058,0,0,1-11.433,21.063,124.931,124.931,0,0,1-15.142,18.352,124.868,124.868,0,0,1-18.352,15.142,124.006,124.006,0,0,1-21.062,11.433,123.363,123.363,0,0,1-23.276,7.225A124.924,124.924,0,0,1-7313-2529Z" transform="translate(7276 3835)" fill="#fff"/>
    </clipPath>
    <clipPath id="clip-path-2">
      <path id="Subtraction_7" data-name="Subtraction 7" d="M0,208H0V0A104.763,104.763,0,0,1,20.96,2.113a103.452,103.452,0,0,1,19.522,6.06,103.992,103.992,0,0,1,17.666,9.589,104.708,104.708,0,0,1,15.392,12.7,104.731,104.731,0,0,1,12.7,15.392,104.048,104.048,0,0,1,9.589,17.666,103.525,103.525,0,0,1,6.06,19.522A104.79,104.79,0,0,1,104,104a104.79,104.79,0,0,1-2.113,20.96,103.532,103.532,0,0,1-6.06,19.522,104.078,104.078,0,0,1-9.589,17.666,104.784,104.784,0,0,1-12.7,15.392,104.722,104.722,0,0,1-15.392,12.7,104.008,104.008,0,0,1-17.666,9.589,103.466,103.466,0,0,1-19.522,6.06A104.779,104.779,0,0,1,0,208Z" transform="translate(-37.027 1057.948)" fill="#fff"/>
    </clipPath>
  </defs>
  <g id="Group_162016" data-name="Group 162016" transform="translate(37 -1057.618)">
    <g id="Dots" transform="translate(78.047 1055)">
      <circle id="Ellipse_65" data-name="Ellipse 65" cx="10" cy="10" r="10" transform="translate(129.953 23)" fill="#ffc83e"/>
      <circle id="Ellipse_66" data-name="Ellipse 66" cx="10" cy="10" r="10" transform="translate(1145.953 165)" fill="none" stroke="#9bf2cd" stroke-width="4"/>
      <circle id="Ellipse_68" data-name="Ellipse 68" cx="7" cy="7" r="7" transform="translate(937.953 533)" fill="#83caff"/>
      <g id="Group_162002" data-name="Group 162002" transform="translate(1004.205 2.618)">
        <g id="Group_513" data-name="Group 513">
          <g id="Group_507" data-name="Group 507" transform="translate(8.931)">
            <g id="Group_504" data-name="Group 504">
              <g id="Group_503" data-name="Group 503">
                <path id="Path_1214" data-name="Path 1214" d="M2566.223,1108.881a1.444,1.444,0,0,1-1.444-1.444v-6.362a1.443,1.443,0,0,1,2.886,0v6.362A1.444,1.444,0,0,1,2566.223,1108.881Z" transform="translate(-2564.779 -1099.632)" fill="#ef4923"/>
              </g>
            </g>
            <g id="Group_506" data-name="Group 506" transform="translate(0 11.135)">
              <g id="Group_505" data-name="Group 505">
                <path id="Path_1215" data-name="Path 1215" d="M2566.223,1117.108a1.443,1.443,0,0,1-1.444-1.442V1109.3a1.443,1.443,0,0,1,2.886,0v6.362A1.442,1.442,0,0,1,2566.223,1117.108Z" transform="translate(-2564.779 -1107.861)" fill="#ef4923"/>
              </g>
            </g>
          </g>
          <g id="Group_512" data-name="Group 512" transform="translate(0 8.748)">
            <g id="Group_509" data-name="Group 509" transform="translate(12.146)">
              <g id="Group_508" data-name="Group 508">
                <path id="Path_1216" data-name="Path 1216" d="M2574.314,1108.983H2568.6a1.443,1.443,0,1,1,0-2.886h5.715a1.443,1.443,0,0,1,0,2.886Z" transform="translate(-2567.155 -1106.097)" fill="#ef4923"/>
              </g>
            </g>
            <g id="Group_511" data-name="Group 511">
              <g id="Group_510" data-name="Group 510">
                <path id="Path_1217" data-name="Path 1217" d="M2565.337,1108.983h-5.715a1.443,1.443,0,0,1,0-2.886h5.715a1.443,1.443,0,1,1,0,2.886Z" transform="translate(-2558.179 -1106.097)" fill="#ef4923"/>
              </g>
            </g>
          </g>
        </g>
      </g>
      <g id="Group_162003" data-name="Group 162003" transform="translate(255.953 541.158)">
        <g id="Group_513-2" data-name="Group 513">
          <g id="Group_507-2" data-name="Group 507" transform="translate(7.557)">
            <g id="Group_504-2" data-name="Group 504">
              <g id="Group_503-2" data-name="Group 503">
                <path id="Path_1214-2" data-name="Path 1214" d="M2566.223,1108.881a1.444,1.444,0,0,1-1.444-1.444v-6.362a1.443,1.443,0,0,1,2.886,0v6.362A1.444,1.444,0,0,1,2566.223,1108.881Z" transform="translate(-2564.779 -1099.632)" fill="#72eab7"/>
              </g>
            </g>
            <g id="Group_506-2" data-name="Group 506" transform="translate(0 8.436)">
              <g id="Group_505-2" data-name="Group 505">
                <path id="Path_1215-2" data-name="Path 1215" d="M2566.223,1117.108a1.443,1.443,0,0,1-1.444-1.442V1109.3a1.443,1.443,0,0,1,2.886,0v6.362A1.442,1.442,0,0,1,2566.223,1117.108Z" transform="translate(-2564.779 -1107.861)" fill="#72eab7"/>
              </g>
            </g>
          </g>
          <g id="Group_512-2" data-name="Group 512" transform="translate(0 7.398)">
            <g id="Group_509-2" data-name="Group 509" transform="translate(9.398)">
              <g id="Group_508-2" data-name="Group 508">
                <path id="Path_1216-2" data-name="Path 1216" d="M2574.314,1108.983H2568.6a1.443,1.443,0,1,1,0-2.886h5.715a1.443,1.443,0,0,1,0,2.886Z" transform="translate(-2567.155 -1106.097)" fill="#72eab7"/>
              </g>
            </g>
            <g id="Group_511-2" data-name="Group 511">
              <g id="Group_510-2" data-name="Group 510">
                <path id="Path_1217-2" data-name="Path 1217" d="M2565.337,1108.983h-5.715a1.443,1.443,0,0,1,0-2.886h5.715a1.443,1.443,0,1,1,0,2.886Z" transform="translate(-2558.179 -1106.097)" fill="#72eab7"/>
              </g>
            </g>
          </g>
        </g>
      </g>
    </g>
    <g id="Mask_Group_16" data-name="Mask Group 16" clip-path="url(#clip-path)">
      <g id="Group_181" data-name="Group 181" transform="translate(-490.825 825.47) rotate(-8)">
        <g id="Group_178" data-name="Group 178" transform="translate(96.811 165.798)">
          <path id="Line_12" data-name="Line 12" d="M1.523,0H206.98" transform="matrix(0.918, 0.397, -0.397, 0.918, 318.848, 126.978)" fill="none" stroke="rgba(120,149,250,0.7)" stroke-width="4" stroke-dasharray="0 0"/>
          <path id="Line_12-2" data-name="Line 12" d="M1.523,0H206.98" transform="matrix(0.918, 0.397, -0.397, 0.918, 321.474, 108.287)" fill="none" stroke="rgba(120,149,250,0.7)" stroke-width="4" stroke-dasharray="0 0"/>
          <path id="Line_13" data-name="Line 13" d="M1.523,0H202.258" transform="matrix(0.918, 0.397, -0.397, 0.918, 316.329, 144.68)" fill="none" stroke="rgba(120,149,250,0.7)" stroke-width="4" stroke-dasharray="0 0"/>
          <path id="Line_14" data-name="Line 14" d="M1.523,0H197.68" transform="matrix(0.918, 0.397, -0.397, 0.918, 313.678, 162.324)" fill="none" stroke="rgba(120,149,250,0.7)" stroke-width="4" stroke-dasharray="0 0"/>
          <path id="Line_15" data-name="Line 15" d="M1.523,0H192.476" transform="matrix(0.918, 0.397, -0.397, 0.918, 311.603, 180.215)" fill="none" stroke="rgba(120,149,250,0.7)" stroke-width="4" stroke-dasharray="0 0"/>
          <path id="Line_16" data-name="Line 16" d="M1.523,0H188.059" transform="matrix(0.918, 0.397, -0.397, 0.918, 308.806, 197.794)" fill="none" stroke="rgba(120,149,250,0.7)" stroke-width="4" stroke-dasharray="0 0"/>
          <path id="Line_17" data-name="Line 17" d="M1.523,0H183.641" transform="matrix(0.918, 0.397, -0.397, 0.918, 306.009, 215.375)" fill="none" stroke="rgba(120,149,250,0.7)" stroke-width="4" stroke-dasharray="0 0"/>
          <path id="Line_18" data-name="Line 18" d="M1.523,0h177.7" transform="matrix(0.918, 0.397, -0.397, 0.918, 303.211, 232.954)" fill="none" stroke="rgba(120,149,250,0.7)" stroke-width="4" stroke-dasharray="0 0"/>
          <path id="Line_19" data-name="Line 19" d="M1.523,0H174.807" transform="matrix(0.918, 0.397, -0.397, 0.918, 300.413, 250.535)" fill="none" stroke="rgba(120,149,250,0.7)" stroke-width="4" stroke-dasharray="0 0"/>
          <path id="Line_20" data-name="Line 20" d="M1.523,0H168.642" transform="matrix(0.918, 0.397, -0.397, 0.918, 299.221, 268.808)" fill="none" stroke="rgba(120,149,250,0.7)" stroke-width="4" stroke-dasharray="0 0"/>
          <path id="Line_21" data-name="Line 21" d="M1.523,0h162.35" transform="matrix(0.918, 0.397, -0.397, 0.918, 296.743, 286.527)" fill="none" stroke="rgba(120,149,250,0.7)" stroke-width="4" stroke-dasharray="0 0"/>
          <path id="Line_22" data-name="Line 22" d="M1.523,0H159.348" transform="matrix(0.918, 0.397, -0.397, 0.918, 294.044, 304.15)" fill="none" stroke="rgba(120,149,250,0.7)" stroke-width="4" stroke-dasharray="0 0"/>
        </g>
        <g id="Group_180" data-name="Group 180" transform="translate(18.624 341.501)">
          <path id="Line_12-3" data-name="Line 12" d="M1.523,0H152.228" transform="matrix(0.918, 0.397, -0.397, 0.918, 369.092, 148.732)" fill="none" stroke="rgba(120,149,250,0.7)" stroke-width="4" stroke-dasharray="0 0"/>
          <path id="Line_13-2" data-name="Line 13" d="M1.523,0H146.729" transform="matrix(0.918, 0.397, -0.397, 0.918, 367.288, 166.742)" fill="none" stroke="rgba(120,149,250,0.7)" stroke-width="4" stroke-dasharray="0 0"/>
          <path id="Line_14-2" data-name="Line 14" d="M1.523,0H142.116" transform="matrix(0.918, 0.397, -0.397, 0.918, 364.668, 184.4)" fill="none" stroke="rgba(120,149,250,0.7)" stroke-width="4" stroke-dasharray="0 0"/>
          <path id="Line_15-2" data-name="Line 15" d="M1.523,0H136.989" transform="matrix(0.918, 0.397, -0.397, 0.918, 362.523, 202.261)" fill="none" stroke="rgba(120,149,250,0.7)" stroke-width="4" stroke-dasharray="0 0"/>
          <path id="Line_16-2" data-name="Line 16" d="M1.523,0H132.937" transform="matrix(0.918, 0.397, -0.397, 0.918, 359.39, 219.695)" fill="none" stroke="rgba(120,149,250,0.7)" stroke-width="4" stroke-dasharray="0 0"/>
          <path id="Line_17-2" data-name="Line 17" d="M1.523,0H128.155" transform="matrix(0.918, 0.397, -0.397, 0.918, 356.927, 237.42)" fill="none" stroke="rgba(120,149,250,0.7)" stroke-width="4" stroke-dasharray="0 0"/>
          <path id="Line_18-2" data-name="Line 18" d="M1.523,0H123.738" transform="matrix(0.918, 0.397, -0.397, 0.918, 354.13, 254.999)" fill="none" stroke="rgba(120,149,250,0.7)" stroke-width="4" stroke-dasharray="0 0"/>
          <path id="Line_19-2" data-name="Line 19" d="M1.523,0H118.645" transform="matrix(0.918, 0.397, -0.397, 0.918, 351.952, 272.848)" fill="none" stroke="rgba(120,149,250,0.7)" stroke-width="4" stroke-dasharray="0 0"/>
          <path id="Line_20-2" data-name="Line 20" d="M1.523,0h113.1" transform="matrix(0.918, 0.397, -0.397, 0.918, 348.795, 290.272)" fill="none" stroke="rgba(120,149,250,0.7)" stroke-width="4" stroke-dasharray="0 0"/>
          <path id="Line_21-2" data-name="Line 21" d="M1.523,0h109.1" transform="matrix(0.918, 0.397, -0.397, 0.918, 345.608, 307.684)" fill="none" stroke="rgba(120,149,250,0.7)" stroke-width="4" stroke-dasharray="0 0"/>
          <path id="Line_22-2" data-name="Line 22" d="M1.523,0H104.5" transform="matrix(0.918, 0.397, -0.397, 0.918, 344.379, 325.943)" fill="none" stroke="rgba(120,149,250,0.7)" stroke-width="4" stroke-dasharray="0 0"/>
        </g>
      </g>
    </g>
    <g id="Mask_Group_17" data-name="Mask Group 17" transform="translate(1365.973 2711.947) rotate(180)" clip-path="url(#clip-path-2)">
      <g id="Group_181-2" data-name="Group 181" transform="translate(-134.713 1015.5) rotate(-8)">
        <g id="Group_178-2" data-name="Group 178" transform="translate(-24.27 71.442) rotate(-27)">
          <path id="Line_12-4" data-name="Line 12" d="M0,0H172.229" transform="matrix(0.918, 0.397, -0.397, 0.918, 20.792, 15.668)" fill="none" stroke="#e7e3ac" stroke-width="4" stroke-dasharray="0 0"/>
          <path id="Line_12-5" data-name="Line 12" d="M0,0H172.229" transform="matrix(0.918, 0.397, -0.397, 0.918, 22.994, 0)" fill="none" stroke="#e7e3ac" stroke-width="4" stroke-dasharray="0 0"/>
          <path id="Line_13-3" data-name="Line 13" d="M0,0H168.271" transform="matrix(0.918, 0.397, -0.397, 0.918, 18.681, 30.507)" fill="none" stroke="#e7e3ac" stroke-width="4" stroke-dasharray="0 0"/>
          <path id="Line_14-3" data-name="Line 14" d="M0,0H164.433" transform="matrix(0.918, 0.397, -0.397, 0.918, 16.459, 45.298)" fill="none" stroke="#e7e3ac" stroke-width="4" stroke-dasharray="0 0"/>
          <path id="Line_15-3" data-name="Line 15" d="M0,0H160.071" transform="matrix(0.918, 0.397, -0.397, 0.918, 14.72, 60.295)" fill="none" stroke="#e7e3ac" stroke-width="4" stroke-dasharray="0 0"/>
          <path id="Line_16-3" data-name="Line 16" d="M0,0H156.368" transform="matrix(0.918, 0.397, -0.397, 0.918, 12.375, 75.031)" fill="none" stroke="#e7e3ac" stroke-width="4" stroke-dasharray="0 0"/>
          <path id="Line_17-3" data-name="Line 17" d="M0,0H152.665" transform="matrix(0.918, 0.397, -0.397, 0.918, 10.03, 89.769)" fill="none" stroke="#e7e3ac" stroke-width="4" stroke-dasharray="0 0"/>
          <path id="Line_18-3" data-name="Line 18" d="M0,0H148.962" transform="matrix(0.918, 0.397, -0.397, 0.918, 7.685, 104.505)" fill="none" stroke="#e7e3ac" stroke-width="4" stroke-dasharray="0 0"/>
          <path id="Line_19-3" data-name="Line 19" d="M0,0H145.259" transform="matrix(0.918, 0.397, -0.397, 0.918, 5.339, 119.242)" fill="none" stroke="#e7e3ac" stroke-width="4" stroke-dasharray="0 0"/>
          <path id="Line_20-3" data-name="Line 20" d="M0,0H140.091" transform="matrix(0.918, 0.397, -0.397, 0.918, 4.34, 134.561)" fill="none" stroke="#e7e3ac" stroke-width="4" stroke-dasharray="0 0"/>
          <path id="Line_21-3" data-name="Line 21" d="M0,0H136.094" transform="matrix(0.918, 0.397, -0.397, 0.918, 2.262, 149.414)" fill="none" stroke="#e7e3ac" stroke-width="4" stroke-dasharray="0 0"/>
          <path id="Line_22-3" data-name="Line 22" d="M0,0H132.3" transform="matrix(0.918, 0.397, -0.397, 0.918, 0, 164.187)" fill="none" stroke="#e7e3ac" stroke-width="4" stroke-dasharray="0 0"/>
        </g>
        <g id="Group_180-2" data-name="Group 180" transform="translate(33.225 242.928) rotate(-27)">
          <path id="Line_12-6" data-name="Line 12" d="M0,0H126.332" transform="matrix(0.918, 0.397, -0.397, 0.918, 20.717, 0)" fill="none" stroke="#e7e3ac" stroke-width="4" stroke-dasharray="0 0"/>
          <path id="Line_13-4" data-name="Line 13" d="M0,0H121.722" transform="matrix(0.918, 0.397, -0.397, 0.918, 19.204, 15.098)" fill="none" stroke="#e7e3ac" stroke-width="4" stroke-dasharray="0 0"/>
          <path id="Line_14-4" data-name="Line 14" d="M0,0H117.855" transform="matrix(0.918, 0.397, -0.397, 0.918, 17.008, 29.9)" fill="none" stroke="#e7e3ac" stroke-width="4" stroke-dasharray="0 0"/>
          <path id="Line_15-4" data-name="Line 15" d="M0,0H113.557" transform="matrix(0.918, 0.397, -0.397, 0.918, 15.209, 44.872)" fill="none" stroke="#e7e3ac" stroke-width="4" stroke-dasharray="0 0"/>
          <path id="Line_16-4" data-name="Line 16" d="M0,0H110.161" transform="matrix(0.918, 0.397, -0.397, 0.918, 12.583, 59.486)" fill="none" stroke="#e7e3ac" stroke-width="4" stroke-dasharray="0 0"/>
          <path id="Line_17-4" data-name="Line 17" d="M0,0H106.152" transform="matrix(0.918, 0.397, -0.397, 0.918, 10.519, 74.345)" fill="none" stroke="#e7e3ac" stroke-width="4" stroke-dasharray="0 0"/>
          <path id="Line_18-4" data-name="Line 18" d="M0,0H102.449" transform="matrix(0.918, 0.397, -0.397, 0.918, 8.174, 89.082)" fill="none" stroke="#e7e3ac" stroke-width="4" stroke-dasharray="0 0"/>
          <path id="Line_19-4" data-name="Line 19" d="M0,0H98.18" transform="matrix(0.918, 0.397, -0.397, 0.918, 6.348, 104.044)" fill="none" stroke="#e7e3ac" stroke-width="4" stroke-dasharray="0 0"/>
          <path id="Line_20-4" data-name="Line 20" d="M0,0H94.806" transform="matrix(0.918, 0.397, -0.397, 0.918, 3.702, 118.65)" fill="none" stroke="#e7e3ac" stroke-width="4" stroke-dasharray="0 0"/>
          <path id="Line_21-4" data-name="Line 21" d="M0,0H91.457" transform="matrix(0.918, 0.397, -0.397, 0.918, 1.03, 133.245)" fill="none" stroke="#e7e3ac" stroke-width="4" stroke-dasharray="0 0"/>
          <path id="Line_22-4" data-name="Line 22" d="M0,0H86.321" transform="matrix(0.918, 0.397, -0.397, 0.918, 0, 148.552)" fill="none" stroke="#e7e3ac" stroke-width="4" stroke-dasharray="0 0"/>
        </g>
      </g>
    </g>
  </g>
</svg>
