<svg id="Group_1" data-name="Group 1" xmlns="http://www.w3.org/2000/svg" width="116.493" height="37" viewBox="0 0 116.493 37">
  <g id="Group_2" data-name="Group 2">
    <path id="Path_3" data-name="Path 3" d="M218.757-436.257h-5.243s.524-5.389,2.417-7.287,4.835-2.569,7.573-2.9,10.98-.614,14.563.391,5.65,2.485,6.349,5.082a64.542,64.542,0,0,1,1.311,13.765c-.087,4.663-.233,8.488-.641,9.619l3.83,2.415-2.01,3.239-.961.167-2.738-1.731a12.082,12.082,0,0,1-6.276,3.127,59.052,59.052,0,0,1-13.223.391c-3.233-.475-4.369-.53-5.912-1.4a6.015,6.015,0,0,1-3.262-3.881l-.437-1.871,5.126-.084a2.679,2.679,0,0,0,.67,1.34,4.79,4.79,0,0,0,1.515.754,12.333,12.333,0,0,0,2.824.532,62.75,62.75,0,0,0,7.99.125,16.461,16.461,0,0,0,4.507-.732,5.211,5.211,0,0,0,2.049-1l-2.365-1.536.037-5.41,3.744,2.411s1.135-15.665-1.136-19.965c-1.689-1.368-8.155-1.591-11.242-1.452s-6.728.084-8.242,1.843C219.572-440.306,219.048-439.775,218.757-436.257Z" transform="translate(-213.213 446.756)" fill="#0094d6"/>
    <rect id="Rectangle_4" data-name="Rectangle 4" width="5.281" height="3.76" transform="translate(0 14.268)" fill="#0094d6"/>
    <path id="Path_4" data-name="Path 4" d="M217.112-319.2h-5.281l.3,3.834h5.175Z" transform="translate(-211.831 341.066)" fill="#0094d6"/>
  </g>
  <text id="Neqabty" transform="translate(42.493 26)" fill="#0092dc" font-size="20" font-family="Cairo-Bold, Cairo" font-weight="700"><tspan x="0" y="0">Neqabty</tspan></text>
</svg>
