<svg xmlns="http://www.w3.org/2000/svg" width="508.769" height="439.594" viewBox="0 0 508.769 439.594">
  <g id="Group_162212" data-name="Group 162212" transform="translate(-20.908 -55.477)">
    <g id="Group_162056" data-name="Group 162056" transform="translate(35.493 55.477)">
      <path id="Path_2411" data-name="Path 2411" d="M330.512,104.1a5.751,5.751,0,0,1-5.719,5.727H202.377a5.741,5.741,0,0,1-5.721-5.727,5.753,5.753,0,0,1,5.721-5.726h5.786a14.922,14.922,0,0,1,24.286-4.624,20.729,20.729,0,0,1,23.883-9.333A23.693,23.693,0,0,1,300.1,89.2a14.923,14.923,0,0,1,21.01,9.174h3.685A5.741,5.741,0,0,1,330.512,104.1Z" transform="translate(-15.911 -53.655)" fill="#cae6fe"/>
      <path id="Path_2412" data-name="Path 2412" d="M173.523,83.733a4.229,4.229,0,0,1-4.207,4.211H79.291a4.2,4.2,0,0,1-2.968-7.184,4.159,4.159,0,0,1,2.968-1.238h4.256a10.975,10.975,0,0,1,17.861-3.4,15.243,15.243,0,0,1,17.564-6.863,17.424,17.424,0,0,1,32.185,3.517,10.977,10.977,0,0,1,15.451,6.747h2.71A4.221,4.221,0,0,1,173.523,83.733Z" transform="translate(-29.457 -54.973)" fill="#cae6fe"/>
      <path id="Path_2413" data-name="Path 2413" d="M447.766,79.21a4.229,4.229,0,0,1-4.206,4.211H353.535a4.2,4.2,0,0,1-2.969-7.184A4.16,4.16,0,0,1,353.535,75h4.255a10.975,10.975,0,0,1,17.861-3.4,15.243,15.243,0,0,1,17.564-6.863A17.424,17.424,0,0,1,425.4,68.252,10.975,10.975,0,0,1,440.849,75h2.711A4.222,4.222,0,0,1,447.766,79.21Z" transform="translate(1.1 -55.477)" fill="#cae6fe"/>
      <path id="Path_2414" data-name="Path 2414" d="M455.951,245.69a17.106,17.106,0,0,0-4.4,1.526l-4.674-5.186-5.683,5.121,4.475,4.964a17.032,17.032,0,0,0-2.426,4.4l-7.807-.406-.4,7.639,7.2.373a17.107,17.107,0,0,0,1.789,6.214l-5.186,4.675,5.12,5.683,4.965-4.475a17.052,17.052,0,0,0,5.288,2.721l-.337,6.477,7.639.4.325-6.257a17.11,17.11,0,0,0,6.455-2.329l4.472,4.964,5.683-5.12-4.675-5.186a17.059,17.059,0,0,0,1.974-4.213l7.378.385.4-7.64-7.159-.371a17.116,17.116,0,0,0-2.33-6.454l4.964-4.473-5.12-5.682-5.186,4.672a17.164,17.164,0,0,0-5.1-2.24l.372-7.158-7.639-.4Zm8.612,12.155a7.011,7.011,0,1,1-9.9-.516A7.018,7.018,0,0,1,464.564,257.844Z" transform="translate(10.651 -35.105)" fill="#cae6fe"/>
      <path id="Path_2415" data-name="Path 2415" d="M71.78,160.173a17.107,17.107,0,0,0-4.4,1.526l-4.674-5.186-5.683,5.121L61.5,166.6a17.03,17.03,0,0,0-2.426,4.4l-7.806-.4-.4,7.639,7.2.373a17.12,17.12,0,0,0,1.789,6.214l-5.186,4.674,5.12,5.683,4.965-4.473a17.048,17.048,0,0,0,5.288,2.72l-.337,6.477,7.639.4.325-6.256a17.124,17.124,0,0,0,6.455-2.331l4.472,4.964,5.683-5.12-4.675-5.186a17.039,17.039,0,0,0,1.974-4.213l7.378.385.4-7.639-7.159-.372a17.123,17.123,0,0,0-2.33-6.454l4.964-4.472-5.12-5.683-5.186,4.672a17.193,17.193,0,0,0-5.1-2.24l.372-7.156-7.639-.4Zm8.612,12.155a7.011,7.011,0,1,1-9.9-.516A7.018,7.018,0,0,1,80.393,172.327Z" transform="translate(-32.155 -44.633)" fill="#cae6fe"/>
      <path id="Path_2416" data-name="Path 2416" d="M447.6,215.522a9.313,9.313,0,0,0-2.4.834l-2.554-2.834-3.105,2.8,2.445,2.713a9.261,9.261,0,0,0-1.326,2.405l-4.267-.222-.218,4.174,3.937.2a9.339,9.339,0,0,0,.978,3.4l-2.834,2.555,2.8,3.105,2.713-2.445a9.31,9.31,0,0,0,2.891,1.487l-.184,3.54,4.174.217.178-3.42a9.348,9.348,0,0,0,3.528-1.273l2.444,2.712,3.105-2.8-2.554-2.834a9.367,9.367,0,0,0,1.079-2.3l4.031.21.218-4.176-3.912-.2a9.369,9.369,0,0,0-1.274-3.528l2.713-2.444-2.8-3.106-2.834,2.554a9.365,9.365,0,0,0-2.789-1.224l.2-3.911-4.176-.218Zm4.707,6.642a3.831,3.831,0,1,1-5.41-.281A3.836,3.836,0,0,1,452.3,222.164Z" transform="translate(10.777 -38.093)" fill="#cae6fe"/>
      <path id="Path_2417" data-name="Path 2417" d="M45.458,205.084a9.312,9.312,0,0,0-2.4.834L40.5,203.084l-3.105,2.8,2.445,2.712A9.3,9.3,0,0,0,38.516,211l-4.267-.221-.218,4.175,3.936.2a9.363,9.363,0,0,0,.979,3.4l-2.834,2.555,2.8,3.105,2.713-2.445a9.357,9.357,0,0,0,2.891,1.487l-.184,3.54,4.174.217.178-3.42a9.386,9.386,0,0,0,3.528-1.273l2.444,2.712,3.105-2.8L55.2,219.4a9.287,9.287,0,0,0,1.078-2.3l4.032.21.218-4.174-3.912-.2a9.371,9.371,0,0,0-1.274-3.527l2.713-2.444-2.8-3.106L52.426,206.4a9.367,9.367,0,0,0-2.789-1.224l.2-3.911-4.175-.218Zm4.707,6.642a3.831,3.831,0,1,1-5.412-.282A3.834,3.834,0,0,1,50.164,211.726Z" transform="translate(-34.031 -39.257)" fill="#cae6fe"/>
    </g>
    <ellipse id="Ellipse_371" data-name="Ellipse 371" cx="243.826" cy="18.074" rx="243.826" ry="18.074" transform="translate(20.908 458.923)" fill="#cae6fe"/>
    <g id="Group_162097" data-name="Group 162097" transform="translate(108.765 99.452)">
      <g id="Group_162075" data-name="Group 162075" transform="translate(301.135 80.895)">
        <g id="Group_162057" data-name="Group 162057" transform="translate(4.594 45.425)">
          <path id="Path_2418" data-name="Path 2418" d="M388.193,215.279a6.579,6.579,0,1,1-6.58-6.58A6.588,6.588,0,0,1,388.193,215.279Zm-2.064,0a4.515,4.515,0,1,0-4.516,4.516A4.52,4.52,0,0,0,386.129,215.279Z" transform="translate(-375.035 -208.699)" fill="#dd08b4"/>
        </g>
        <g id="Group_162059" data-name="Group 162059" transform="translate(33.576 26.213)">
          <g id="Group_162058" data-name="Group 162058">
            <path id="Path_2419" data-name="Path 2419" d="M414.271,197.993a6.58,6.58,0,1,1-6.58-6.58A6.588,6.588,0,0,1,414.271,197.993Zm-2.064,0a4.515,4.515,0,1,0-4.516,4.516A4.52,4.52,0,0,0,412.207,197.993Z" transform="translate(-401.112 -191.413)" fill="#ed6c6c"/>
          </g>
        </g>
        <g id="Group_162066" data-name="Group 162066" transform="translate(35.641)">
          <g id="Group_162062" data-name="Group 162062" transform="translate(6.388)">
            <g id="Group_162060" data-name="Group 162060" transform="translate(0 7.964)">
              <path id="Path_2420" data-name="Path 2420" d="M409.749,174.994a1.032,1.032,0,0,0-1.031,1.033v4.551a1.032,1.032,0,0,0,2.064,0v-4.551A1.033,1.033,0,0,0,409.749,174.994Z" transform="translate(-408.718 -174.994)" fill="#0083d5"/>
            </g>
            <g id="Group_162061" data-name="Group 162061">
              <path id="Path_2421" data-name="Path 2421" d="M409.749,167.828a1.032,1.032,0,0,0-1.031,1.033v4.551a1.032,1.032,0,0,0,2.064,0v-4.551A1.033,1.033,0,0,0,409.749,167.828Z" transform="translate(-408.718 -167.828)" fill="#0083d5"/>
            </g>
          </g>
          <g id="Group_162065" data-name="Group 162065" transform="translate(0 6.258)">
            <g id="Group_162063" data-name="Group 162063" transform="translate(8.688)">
              <path id="Path_2422" data-name="Path 2422" d="M415.907,173.459h-4.089a1.032,1.032,0,0,0,0,2.064h4.089a1.032,1.032,0,1,0,0-2.064Z" transform="translate(-410.787 -173.459)" fill="#0083d5"/>
            </g>
            <g id="Group_162064" data-name="Group 162064">
              <path id="Path_2423" data-name="Path 2423" d="M408.09,173.459H404a1.032,1.032,0,0,0,0,2.064h4.089a1.032,1.032,0,0,0,0-2.064Z" transform="translate(-402.97 -173.459)" fill="#0083d5"/>
            </g>
          </g>
        </g>
        <g id="Group_162074" data-name="Group 162074" transform="translate(0 17.18)">
          <g id="Group_162073" data-name="Group 162073">
            <g id="Group_162069" data-name="Group 162069" transform="translate(6.388)">
              <g id="Group_162067" data-name="Group 162067" transform="translate(0 7.964)">
                <path id="Path_2424" data-name="Path 2424" d="M377.683,190.452a1.033,1.033,0,0,0-1.033,1.033v4.551a1.033,1.033,0,0,0,2.065,0v-4.551A1.033,1.033,0,0,0,377.683,190.452Z" transform="translate(-376.65 -190.452)" fill="#eac54c"/>
              </g>
              <g id="Group_162068" data-name="Group 162068">
                <path id="Path_2425" data-name="Path 2425" d="M377.683,183.286a1.033,1.033,0,0,0-1.033,1.033v4.551a1.033,1.033,0,0,0,2.065,0v-4.551A1.033,1.033,0,0,0,377.683,183.286Z" transform="translate(-376.65 -183.286)" fill="#eac54c"/>
              </g>
            </g>
            <g id="Group_162072" data-name="Group 162072" transform="translate(0 6.258)">
              <g id="Group_162070" data-name="Group 162070" transform="translate(8.689)">
                <path id="Path_2426" data-name="Path 2426" d="M383.84,188.917h-4.089a1.032,1.032,0,0,0,0,2.064h4.089a1.032,1.032,0,1,0,0-2.064Z" transform="translate(-378.72 -188.917)" fill="#eac54c"/>
              </g>
              <g id="Group_162071" data-name="Group 162071">
                <path id="Path_2427" data-name="Path 2427" d="M376.023,188.917h-4.089a1.032,1.032,0,1,0,0,2.064h4.089a1.032,1.032,0,0,0,0-2.064Z" transform="translate(-370.902 -188.917)" fill="#eac54c"/>
              </g>
            </g>
          </g>
        </g>
      </g>
      <g id="Group_162096" data-name="Group 162096" transform="translate(0)">
        <g id="Group_162077" data-name="Group 162077" transform="translate(16.161 5.623)">
          <g id="Group_162076" data-name="Group 162076">
            <path id="Path_2428" data-name="Path 2428" d="M121.078,113.26a6.579,6.579,0,1,1,6.579-6.58A6.588,6.588,0,0,1,121.078,113.26Zm0-2.064a4.515,4.515,0,1,0-4.516-4.516A4.52,4.52,0,0,0,121.078,111.2Z" transform="translate(-114.498 -100.102)" fill="#ed6c6c"/>
          </g>
        </g>
        <g id="Group_162079" data-name="Group 162079" transform="translate(34.973 27.355)">
          <g id="Group_162078" data-name="Group 162078">
            <path id="Path_2429" data-name="Path 2429" d="M138,132.814a6.579,6.579,0,1,1,6.579-6.58A6.587,6.587,0,0,1,138,132.814Zm0-2.064a4.515,4.515,0,1,0-4.516-4.516A4.52,4.52,0,0,0,138,130.75Z" transform="translate(-131.424 -119.656)" fill="#eac54c"/>
          </g>
        </g>
        <g id="Group_162086" data-name="Group 162086" transform="translate(51.685)">
          <g id="Group_162082" data-name="Group 162082" transform="translate(0 6.388)">
            <g id="Group_162080" data-name="Group 162080">
              <path id="Path_2430" data-name="Path 2430" d="M153.075,101.824a1.032,1.032,0,0,0-1.031-1.033h-4.551a1.033,1.033,0,1,0,0,2.065h4.551A1.032,1.032,0,0,0,153.075,101.824Z" transform="translate(-146.46 -100.791)" fill="#27cdff"/>
            </g>
            <g id="Group_162081" data-name="Group 162081" transform="translate(7.966)">
              <path id="Path_2431" data-name="Path 2431" d="M160.242,101.824a1.033,1.033,0,0,0-1.033-1.033h-4.551a1.033,1.033,0,0,0,0,2.065h4.551A1.033,1.033,0,0,0,160.242,101.824Z" transform="translate(-153.627 -100.791)" fill="#27cdff"/>
            </g>
          </g>
          <g id="Group_162085" data-name="Group 162085" transform="translate(6.258)">
            <g id="Group_162083" data-name="Group 162083" transform="translate(0 8.689)">
              <path id="Path_2432" data-name="Path 2432" d="M154.155,107.981v-4.089a1.032,1.032,0,0,0-2.064,0v4.089a1.032,1.032,0,0,0,2.064,0Z" transform="translate(-152.091 -102.861)" fill="#27cdff"/>
            </g>
            <g id="Group_162084" data-name="Group 162084">
              <path id="Path_2433" data-name="Path 2433" d="M154.155,100.163V96.076a1.032,1.032,0,1,0-2.064,0v4.088a1.032,1.032,0,1,0,2.064,0Z" transform="translate(-152.091 -95.043)" fill="#27cdff"/>
            </g>
          </g>
        </g>
        <g id="Group_162095" data-name="Group 162095" transform="translate(0 38.45)">
          <g id="Group_162094" data-name="Group 162094">
            <g id="Group_162090" data-name="Group 162090" transform="translate(0 6.388)">
              <g id="Group_162087" data-name="Group 162087">
                <path id="Path_2434" data-name="Path 2434" d="M106.572,136.417a1.032,1.032,0,0,0-1.033-1.031h-4.55a1.032,1.032,0,1,0,0,2.064h4.55A1.033,1.033,0,0,0,106.572,136.417Z" transform="translate(-99.957 -135.386)" fill="#dd08b4"/>
              </g>
              <g id="Group_162089" data-name="Group 162089" transform="translate(7.964)">
                <g id="Group_162088" data-name="Group 162088">
                  <path id="Path_2435" data-name="Path 2435" d="M113.738,136.417a1.031,1.031,0,0,0-1.031-1.031h-4.551a1.032,1.032,0,1,0,0,2.064h4.551A1.032,1.032,0,0,0,113.738,136.417Z" transform="translate(-107.123 -135.386)" fill="#dd08b4"/>
                </g>
              </g>
            </g>
            <g id="Group_162093" data-name="Group 162093" transform="translate(6.258)">
              <g id="Group_162091" data-name="Group 162091" transform="translate(0 8.688)">
                <path id="Path_2436" data-name="Path 2436" d="M107.652,142.575v-4.088a1.032,1.032,0,1,0-2.064,0v4.088a1.032,1.032,0,1,0,2.064,0Z" transform="translate(-105.588 -137.455)" fill="#dd08b4"/>
              </g>
              <g id="Group_162092" data-name="Group 162092">
                <path id="Path_2437" data-name="Path 2437" d="M107.652,134.758v-4.089a1.032,1.032,0,0,0-2.064,0v4.089a1.032,1.032,0,1,0,2.064,0Z" transform="translate(-105.588 -129.638)" fill="#dd08b4"/>
              </g>
            </g>
          </g>
        </g>
      </g>
    </g>
    <g id="Group_162112" data-name="Group 162112" transform="translate(92.584 95.241)">
      <g id="Group_162102" data-name="Group 162102" transform="translate(254.928)">
        <g id="Group_162099" data-name="Group 162099" transform="translate(13.673)">
          <path id="Path_2438" data-name="Path 2438" d="M327.071,165.334l2.627,1.557,1.395.826,3.949,2.338s74.68-37.363,65.144-71.488c-2.935-10.505-18.186-13.244-33.577,16.34C352.341,142.332,327.071,165.334,327.071,165.334Z" transform="translate(-327.071 -91.255)" fill="#abd3f2"/>
          <g id="Group_162098" data-name="Group 162098" transform="translate(2.627 19.541)">
            <path id="Path_2439" data-name="Path 2439" d="M329.435,164.932l1.395.826c15.684-10.613,29-24.3,37.7-34.329a227.442,227.442,0,0,0,16.636-21.457.732.732,0,0,0-1.223-.806,226.058,226.058,0,0,1-16.537,21.32C358.661,140.561,345.232,154.359,329.435,164.932Z" transform="translate(-329.435 -108.837)" fill="#90c3ef"/>
          </g>
        </g>
        <g id="Group_162101" data-name="Group 162101" transform="translate(0 22.603)">
          <path id="Path_2440" data-name="Path 2440" d="M314.769,171.929l2.485,3.411,1.318,1.808,3.735,5.124s115.177-6.656,121.7-55.172c2.008-14.936-15.851-26.736-51.534,2.411C359.4,156.528,314.769,171.929,314.769,171.929Z" transform="translate(-314.769 -111.592)" fill="#cae6fe"/>
          <g id="Group_162100" data-name="Group 162100" transform="translate(2.485 22.556)">
            <path id="Path_2441" data-name="Path 2441" d="M317.005,173.079l1.318,1.808c25.7-4.907,50.071-15.015,66.585-22.992a313.928,313.928,0,0,0,32.827-18.153,1.011,1.011,0,0,0-1.113-1.689A312.351,312.351,0,0,1,384,150.087C367.4,158.1,342.824,168.281,317.005,173.079Z" transform="translate(-317.005 -131.886)" fill="#abd3f2"/>
          </g>
        </g>
      </g>
      <g id="Group_162107" data-name="Group 162107" transform="translate(0 251.32)">
        <g id="Group_162104" data-name="Group 162104" transform="translate(41.899)">
          <path id="Path_2442" data-name="Path 2442" d="M196.684,391.847l-2.637,1.542-1.4.817-3.962,2.315s-74.452-37.815-64.709-71.882c3-10.487,18.265-13.134,33.477,16.545C171.554,368.692,196.684,391.847,196.684,391.847Z" transform="translate(-123.097 -317.38)" fill="#abd3f2"/>
          <g id="Group_162103" data-name="Group 162103" transform="translate(15.438 19.58)">
            <path id="Path_2443" data-name="Path 2443" d="M192.5,391.425l-1.4.817c-15.62-10.707-28.849-24.478-37.488-34.556a227.328,227.328,0,0,1-16.506-21.558.732.732,0,0,1,1.227-.8,226.353,226.353,0,0,0,16.407,21.422C163.422,366.878,176.768,380.755,192.5,391.425Z" transform="translate(-136.987 -334.997)" fill="#90c3ef"/>
          </g>
        </g>
        <g id="Group_162106" data-name="Group 162106" transform="translate(0 22.378)">
          <path id="Path_2444" data-name="Path 2444" d="M214.5,398.548l-2.506,3.4-1.329,1.8-3.767,5.1S91.767,401.49,85.538,352.935c-1.918-14.948,16.012-26.64,51.519,2.723C169.969,382.877,214.5,398.548,214.5,398.548Z" transform="translate(-85.399 -337.514)" fill="#cae6fe"/>
          <g id="Group_162105" data-name="Group 162105" transform="translate(25.659 22.63)">
            <path id="Path_2445" data-name="Path 2445" d="M209.426,399.674l-1.329,1.8c-25.671-5.064-49.978-15.319-66.444-23.4a314.232,314.232,0,0,1-32.717-18.352,1.012,1.012,0,0,1,1.124-1.683,312.421,312.421,0,0,0,32.516,18.232C159.123,384.391,183.636,394.72,209.426,399.674Z" transform="translate(-108.485 -357.875)" fill="#abd3f2"/>
          </g>
        </g>
      </g>
      <g id="Group_162109" data-name="Group 162109" transform="translate(266.818 165.422)">
        <g id="Group_162108" data-name="Group 162108" transform="translate(0 12.611)">
          <path id="Path_2446" data-name="Path 2446" d="M328.56,351.864c14.555-18.734,28.655-39.163,36.4-53.791,10.117-19.111,14.173-34.429,12.052-45.531a1.357,1.357,0,1,0-2.665.509c3.707,19.407-13.19,53.4-48.88,98.389Z" transform="translate(-325.467 -251.44)" fill="#abd3f2"/>
        </g>
        <path id="Path_2447" data-name="Path 2447" d="M367.838,278.555s9.41,6.327,19.89-10.653C387.728,267.9,370.575,262.3,367.838,278.555Z" transform="translate(-320.746 -237.098)" fill="#cae6fe"/>
        <path id="Path_2448" data-name="Path 2448" d="M364.473,287.572s6.842-9.044-9.528-20.451C354.944,267.121,348.4,283.933,364.473,287.572Z" transform="translate(-322.33 -237.081)" fill="#cae6fe"/>
        <path id="Path_2449" data-name="Path 2449" d="M371.674,262.55s9.465-6.245-2.166-22.457C369.508,240.093,357.73,253.762,371.674,262.55Z" transform="translate(-321.078 -240.093)" fill="#cae6fe"/>
        <path id="Path_2450" data-name="Path 2450" d="M354.93,302.888s6.715,9.138,22.321-3.3C377.251,299.591,363,288.519,354.93,302.888Z" transform="translate(-322.184 -233.917)" fill="#cae6fe"/>
        <path id="Path_2451" data-name="Path 2451" d="M350.012,311.928s8.3-7.724-5.849-21.792C344.162,290.136,334.808,305.565,350.012,311.928Z" transform="translate(-323.701 -234.517)" fill="#cae6fe"/>
        <path id="Path_2452" data-name="Path 2452" d="M342.244,321.645s6.542,9.264,22.379-2.873C364.622,318.772,350.59,307.432,342.244,321.645Z" transform="translate(-323.598 -231.804)" fill="#cae6fe"/>
      </g>
      <g id="Group_162111" data-name="Group 162111" transform="translate(23.675 66.144)">
        <g id="Group_162110" data-name="Group 162110" transform="translate(9.965 12.545)">
          <path id="Path_2453" data-name="Path 2453" d="M190.237,245.108c-19.26-13.853-38.561-29.46-50.126-41.3-15.11-15.469-23.332-29.015-24.438-40.262a1.357,1.357,0,1,1,2.7-.266c1.934,19.662,27.754,47.49,74.711,80.547Z" transform="translate(-115.666 -162.055)" fill="#abd3f2"/>
        </g>
        <path id="Path_2454" data-name="Path 2454" d="M128.79,187.01s-7.236,8.731-22.09-4.592C106.7,182.418,121.568,172.195,128.79,187.01Z" transform="translate(-106.7 -147.624)" fill="#cae6fe"/>
        <path id="Path_2455" data-name="Path 2455" d="M133.467,194.979s-9.119-6.74,3.356-22.312C136.824,172.667,147.858,186.943,133.467,194.979Z" transform="translate(-104.076 -148.328)" fill="#cae6fe"/>
        <path id="Path_2456" data-name="Path 2456" d="M119.357,172.921s-10.845-3.313-4.275-22.153C115.083,150.768,130.245,160.547,119.357,172.921Z" transform="translate(-106.001 -150.768)" fill="#cae6fe"/>
        <path id="Path_2457" data-name="Path 2457" d="M148.2,206.742s-3.858,10.664-22.342,3.15C125.856,209.891,136.389,195.243,148.2,206.742Z" transform="translate(-104.566 -145.022)" fill="#cae6fe"/>
        <path id="Path_2458" data-name="Path 2458" d="M154.128,214.206s-10.148-5.06-.552-22.555C153.576,191.651,166.912,203.8,154.128,214.206Z" transform="translate(-101.937 -146.213)" fill="#cae6fe"/>
        <path id="Path_2459" data-name="Path 2459" d="M165.669,221.147s-3.653,10.735-22.277,3.573C143.392,224.72,153.646,209.874,165.669,221.147Z" transform="translate(-102.612 -143.397)" fill="#cae6fe"/>
      </g>
    </g>
    <g id="Group_162131" data-name="Group 162131" transform="translate(155.491 122.781)">
      <g id="Group_162130" data-name="Group 162130">
        <g id="Group_162121" data-name="Group 162121" transform="translate(23.318)">
          <g id="Group_162113" data-name="Group 162113" transform="translate(11.951)">
            <path id="Path_2460" data-name="Path 2460" d="M367.65,134.031V451.157a18,18,0,0,1-18,18H191.73a17.992,17.992,0,0,1-18-18V134.031a18,18,0,0,1,18-18H349.652a17.987,17.987,0,0,1,18,18Z" transform="translate(-173.733 -116.034)" fill="#3b3e7d"/>
          </g>
          <g id="Group_162114" data-name="Group 162114" transform="translate(5.247)">
            <path id="Path_2461" data-name="Path 2461" d="M361.618,134.031V451.157a18,18,0,0,1-18,18H185.7a17.992,17.992,0,0,1-18-18V134.031a18,18,0,0,1,18-18H343.62a17.987,17.987,0,0,1,18,18Z" transform="translate(-167.701 -116.034)" fill="#18285d"/>
          </g>
          <g id="Group_162115" data-name="Group 162115" transform="translate(202.576 49.355)">
            <path id="Rectangle_1919" data-name="Rectangle 1919" d="M3.784,0H6.7a0,0,0,0,1,0,0V28.64a0,0,0,0,1,0,0H3.784A3.784,3.784,0,0,1,0,24.856V3.784A3.784,3.784,0,0,1,3.784,0Z" transform="translate(6.697 28.64) rotate(180)" fill="#18285d"/>
          </g>
          <g id="Group_162116" data-name="Group 162116" transform="translate(0 49.355)">
            <path id="Rectangle_1920" data-name="Rectangle 1920" d="M2.965,0H5.247a0,0,0,0,1,0,0V28.64a0,0,0,0,1,0,0H2.965A2.965,2.965,0,0,1,0,25.675V2.965A2.965,2.965,0,0,1,2.965,0Z" fill="#18285d"/>
          </g>
          <g id="Group_162117" data-name="Group 162117" transform="translate(0 86.928)">
            <path id="Rectangle_1921" data-name="Rectangle 1921" d="M2.965,0H5.247a0,0,0,0,1,0,0V28.64a0,0,0,0,1,0,0H2.965A2.965,2.965,0,0,1,0,25.675V2.965A2.965,2.965,0,0,1,2.965,0Z" fill="#18285d"/>
          </g>
          <g id="Group_162118" data-name="Group 162118" transform="translate(14.227 8.977)">
            <path id="Path_2462" data-name="Path 2462" d="M351.737,132.04v319.3a7.925,7.925,0,0,1-7.929,7.929h-160.1a7.916,7.916,0,0,1-7.929-7.929V132.04a7.931,7.931,0,0,1,7.929-7.929h160.1a7.932,7.932,0,0,1,1.519.144,7.8,7.8,0,0,1,1.6.487,7.974,7.974,0,0,1,4.7,6A7.63,7.63,0,0,1,351.737,132.04Z" transform="translate(-175.78 -124.111)" fill="#fff"/>
          </g>
          <g id="Group_162120" data-name="Group 162120" transform="translate(58.103 281.889)">
            <path id="Path_2463" data-name="Path 2463" d="M307.651,373.177v28.65a3.667,3.667,0,0,1-3.8,3.515H219.06a3.667,3.667,0,0,1-3.8-3.515v-28.65a3.667,3.667,0,0,1,3.8-3.514h84.788A3.666,3.666,0,0,1,307.651,373.177Z" transform="translate(-215.258 -369.663)" fill="#007ce6"/>
            <text id="ادفع" transform="translate(31.498 22.076)" fill="#fff" font-size="16" font-family="DINNextLTArabic-Bold, DIN Next LT Arabic" font-weight="700" letter-spacing="-0.033em"><tspan x="0" y="0">ادفع</tspan></text>
          </g>
        </g>
        <rect id="Rectangle_1922" data-name="Rectangle 1922" width="80.104" height="141.739" transform="translate(38.049 107.47)" fill="#e9e2e8"/>
        <g id="Group_162122" data-name="Group 162122" transform="translate(112.228 80.985)">
          <path id="Path_2464" data-name="Path 2464" d="M273.871,204.348V351.631a15.5,15.5,0,0,1-10.581,14.656,15.323,15.323,0,0,1-4.867.791,15.491,15.491,0,0,1-15.448-15.448V204.348A15.491,15.491,0,0,1,258.424,188.9a15.322,15.322,0,0,1,4.867.791,15.513,15.513,0,0,1,10.581,14.656Z" transform="translate(-242.976 -188.9)" fill="#18285d"/>
          <path id="Path_2465" data-name="Path 2465" d="M272.9,204.268V351.552a15.5,15.5,0,0,1-10.581,14.656,15.5,15.5,0,0,1-10.581-14.656V204.268a15.5,15.5,0,0,1,10.581-14.656A15.513,15.513,0,0,1,272.9,204.268Z" transform="translate(-242 -188.821)" fill="#3b3e7d"/>
        </g>
        <path id="Path_2466" data-name="Path 2466" d="M351.737,132.04v32.837H175.78V132.04a7.931,7.931,0,0,1,7.929-7.929h160.1a7.932,7.932,0,0,1,1.519.144,7.8,7.8,0,0,1,1.6.487,7.974,7.974,0,0,1,4.7,6A7.63,7.63,0,0,1,351.737,132.04Z" transform="translate(-138.235 -115.134)" fill="#e9e2e8"/>
        <g id="Group_162129" data-name="Group 162129" transform="translate(0 8.977)">
          <g id="Group_162123" data-name="Group 162123">
            <path id="Path_2467" data-name="Path 2467" d="M175.047,165.973l-.054.058L175,177.009a16.5,16.5,0,0,1-32.9,1.844,15.783,15.783,0,0,1-.1-1.844V166.247l40.288-40.288a6.307,6.307,0,0,1,4.461-1.848h29.477Z" transform="translate(-141.999 -124.111)" fill="#007ce6"/>
            <path id="Path_2468" data-name="Path 2468" d="M174.993,161.834,175,172.812a16.5,16.5,0,0,1-32.9,1.844l-.1-12.606,33.048-.275Z" transform="translate(-141.999 -119.914)" fill="#005ec9"/>
          </g>
          <g id="Group_162124" data-name="Group 162124" transform="translate(65.999)">
            <path id="Path_2469" data-name="Path 2469" d="M275.617,124.111l-41.223,41.223v11.675a16.5,16.5,0,1,1-33,0l-.01-11.308L242.6,124.111Z" transform="translate(-201.381 -124.111)" fill="#007ce6"/>
            <path id="Path_2470" data-name="Path 2470" d="M234.395,161.288v11.579a16.5,16.5,0,1,1-33,0l-.01-11.308Z" transform="translate(-201.381 -119.969)" fill="#005ec9"/>
          </g>
          <g id="Group_162125" data-name="Group 162125" transform="translate(132.007)">
            <path id="Path_2471" data-name="Path 2471" d="M294.769,164.877l.011,12.132a16.507,16.507,0,0,1-16.5,16.5c-9.114,0-17.506-7.39-17.506-16.5l.07-11.675.177-.178,40.976-41.045H336Z" transform="translate(-260.772 -124.111)" fill="#007ce6"/>
            <path id="Path_2472" data-name="Path 2472" d="M294.78,172.922a16.507,16.507,0,0,1-16.5,16.5c-9.114,0-17.506-7.39-17.506-16.5l.07-11.675.177-.178,33.751-.279Z" transform="translate(-260.772 -120.024)" fill="#005ec9"/>
          </g>
          <g id="Group_162126" data-name="Group 162126" transform="translate(166.004 0.144)">
            <path id="Path_2473" data-name="Path 2473" d="M324.362,164.589v0l0,12.4a16.5,16.5,0,1,1-33,0V164.862l41.088-40.621a7.8,7.8,0,0,1,1.6.487,7.974,7.974,0,0,1,4.7,6,7.63,7.63,0,0,1,.109,1.3v18.325Z" transform="translate(-291.361 -124.241)" fill="#fff"/>
          </g>
          <path id="Path_2474" data-name="Path 2474" d="M324.366,172.949a16.5,16.5,0,0,1-33,0V160.817l33-.271Z" transform="translate(-125.357 -120.051)" fill="#e9e2e8"/>
          <g id="Group_162127" data-name="Group 162127" transform="translate(32.994)">
            <path id="Path_2475" data-name="Path 2475" d="M245.913,124.111,204.69,165.7v11.308a16.5,16.5,0,0,1-33,0V166.031l.054-.058,41.178-41.862Z" transform="translate(-171.685 -124.111)" fill="#fff"/>
            <path id="Path_2476" data-name="Path 2476" d="M204.69,161.532V172.84a16.5,16.5,0,0,1-33,0V161.861l.054-.058Z" transform="translate(-171.685 -119.941)" fill="#e9e2e8"/>
          </g>
          <g id="Group_162128" data-name="Group 162128" transform="translate(99.002)">
            <path id="Path_2477" data-name="Path 2477" d="M305.3,124.111l-41.223,41.223v11.675a16.5,16.5,0,0,1-33,0V165.334l41.233-41.223Z" transform="translate(-231.076 -124.111)" fill="#fff"/>
            <path id="Path_2478" data-name="Path 2478" d="M264.258,161.041l-.177.178v11.675a16.5,16.5,0,0,1-33,0V161.316Z" transform="translate(-231.076 -119.996)" fill="#e9e2e8"/>
          </g>
        </g>
      </g>
    </g>
    <g id="Group_162134" data-name="Group 162134" transform="translate(65.29 222.092)">
      <g id="Group_162133" data-name="Group 162133">
        <path id="Path_2479" data-name="Path 2479" d="M287.7,215.313V337.207a9.93,9.93,0,0,1-9.929,9.925h-207a9.925,9.925,0,0,1-9.925-9.925V215.313a9.926,9.926,0,0,1,9.925-9.925h207A9.93,9.93,0,0,1,287.7,215.313Z" transform="translate(-60.841 -205.388)" fill="#007ce6"/>
        <rect id="Rectangle_1923" data-name="Rectangle 1923" width="226.857" height="27.017" transform="translate(0.001 25.064)" fill="#3b3e7d"/>
        <rect id="Rectangle_1924" data-name="Rectangle 1924" width="53.361" height="18.693" rx="4.242" transform="translate(157.108 104.737)" fill="#009ef3"/>
        <g id="Group_162132" data-name="Group 162132" transform="translate(13.166 73.931)">
          <rect id="Rectangle_1925" data-name="Rectangle 1925" width="17.334" height="10.196" rx="1.07" fill="#009ef3"/>
          <rect id="Rectangle_1926" data-name="Rectangle 1926" width="17.334" height="10.196" rx="1.07" transform="translate(30.532)" fill="#009ef3"/>
          <rect id="Rectangle_1927" data-name="Rectangle 1927" width="17.334" height="10.196" rx="1.07" transform="translate(61.064)" fill="#009ef3"/>
          <rect id="Rectangle_1928" data-name="Rectangle 1928" width="17.334" height="10.196" rx="1.07" transform="translate(91.597)" fill="#009ef3"/>
          <rect id="Rectangle_1929" data-name="Rectangle 1929" width="17.334" height="10.196" rx="1.07" transform="translate(122.129)" fill="#009ef3"/>
          <rect id="Rectangle_1930" data-name="Rectangle 1930" width="17.334" height="10.196" rx="1.07" transform="translate(152.661)" fill="#009ef3"/>
          <rect id="Rectangle_1931" data-name="Rectangle 1931" width="17.334" height="10.196" rx="1.07" transform="translate(183.193)" fill="#009ef3"/>
        </g>
        <rect id="Rectangle_1932" data-name="Rectangle 1932" width="226.857" height="5.18" transform="translate(0.001 10.748)" fill="#009ef3"/>
        <rect id="Rectangle_1933" data-name="Rectangle 1933" width="30.532" height="30.532" rx="6.929" transform="translate(13.166 95.561)" fill="#009ef3"/>
        <rect id="Rectangle_1934" data-name="Rectangle 1934" width="98.842" height="8.412" rx="2.377" transform="translate(50.982 109.878)" fill="#009ef3"/>
      </g>
    </g>
    <g id="Group_162136" data-name="Group 162136" transform="translate(408.36 246.024)">
      <g id="Group_162135" data-name="Group 162135">
        <path id="Path_2482" data-name="Path 2482" d="M420.579,442.382H400.463c-2.736,0-5.16-3.1-6.006-7.679l-8.53-46.2c-.349-1.891.4-3.854,1.526-4.008a168.416,168.416,0,0,1,46.14-.007c1.125.157,1.872,2.12,1.524,4.008l-8.532,46.21C425.739,439.282,423.314,442.382,420.579,442.382Z" transform="translate(-367.698 -209.541)" fill="#61b3ff"/>
        <ellipse id="Ellipse_372" data-name="Ellipse 372" cx="22.066" cy="2.467" rx="22.066" ry="2.467" transform="translate(20.886 174.802)" fill="#18285d"/>
        <path id="Path_2483" data-name="Path 2483" d="M450.57,342.784c-12.083-3.183-30.544,21.9-36.151,46.349V353.505c2.817-5,8.191-12.517,17.947-20.464,15.172-12.357,29.139-28.215,17.035-31.4-11.344-2.988-28.309,18.935-34.982,41.863V297.751a48.417,48.417,0,0,1,10.276-11.186c9.562-7.788,18.364-17.782,10.735-19.791-6.621-1.744-16.28,9.976-21.011,23.193V275.138a70.387,70.387,0,0,1,4.922-17.836c7.033-15.519,10.832-31.508,1.559-30.318s-15.3,28.83-10.223,50.048v7.631c-3.429-15.528-15.191-31.61-22.869-29.588-7.628,2.009,1.174,12,10.736,19.791,7.278,5.928,10.684,11.478,12.132,14.462v36.04c-5.5-24.575-24.092-49.94-36.239-46.74-12.1,3.189,1.863,19.046,17.035,31.4,11.464,9.337,16.878,18.087,19.2,22.846V376.1c-5.877-24.126-23.995-48.472-35.91-45.334-12.1,3.189-1.724,14.777,15.327,28.794A80.513,80.513,0,0,1,410.677,384.6v20.357a6.3,6.3,0,0,0,3.741,0v-8.1c2.372-4.8,7.791-13.446,19.116-22.67C448.708,361.83,462.674,345.972,450.57,342.784Z" transform="translate(-369.517 -226.921)" fill="#007ce6"/>
      </g>
    </g>
    <g id="Group_162201" data-name="Group 162201" transform="translate(43.678 404.67)">
      <g id="Group_162178" data-name="Group 162178" transform="translate(0 0)">
        <g id="Group_162177" data-name="Group 162177">
          <g id="Group_162146" data-name="Group 162146" transform="translate(0 44.426)">
            <g id="Group_162139" data-name="Group 162139" transform="translate(0 12.325)">
              <path id="Path_2484" data-name="Path 2484" d="M129.045,430.432c0,.041,0,.081,0,.123a6.007,6.007,0,0,1-2.3,4.342,13.55,13.55,0,0,1-1.215.98,24.708,24.708,0,0,1-4.6,2.529c-.391.17-.8.337-1.214.5-1.4.553-2.943,1.07-4.6,1.548q-.6.172-1.215.338-2.179.584-4.6,1.076-.6.123-1.214.238-2.217.42-4.6.758c-.4.058-.806.112-1.215.167q-2.241.29-4.6.508-.605.055-1.215.1-2.256.185-4.6.294-.6.028-1.215.052-2.266.085-4.6.1c-.27,0-.542,0-.814,0h-.4q-2.332-.007-4.6-.086-.61-.022-1.215-.049-1.725-.075-3.408-.192-.6-.042-1.193-.088c-.408-.032-.811-.066-1.215-.1q-2.357-.207-4.6-.491-.614-.078-1.215-.162-1.429-.2-2.8-.423-.914-.152-1.8-.315-.614-.115-1.215-.233-2.414-.478-4.6-1.05c-.287-.074-.571-.151-.854-.228-.121-.033-.241-.067-.36-.1-.658-.183-1.3-.376-1.919-.572q-1.409-.447-2.682-.932-.625-.24-1.215-.486a27.967,27.967,0,0,1-4.081-2.076c-.178-.113-.352-.227-.519-.341-.211-.142-.415-.286-.608-.43-.212-.158-.413-.318-.607-.479-1.755-1.463-2.714-3.048-2.714-4.7,0-.117.006-.232.017-.348l0-9.355,2.693,0,1.215,0,4.6-.007,1.215,0,3.591-.006h1.01l1.214,0,4.6-.007h1.215l4.6-.007,1.215,0,4.6-.007,1.215,0L79,420.8l1.215,0,4.6-.006,1.215,0,4.6-.007h1.215l4.6-.008h1.215l4.6-.008h1.215l4.6-.007,1.214,0,4.6-.007,1.215,0h.3l4.3-.007h1.214l4.6-.008h1.215l2.287,0,.017,9.709Z" transform="translate(-41.395 -420.723)" fill="#009ef3"/>
              <g id="Group_162138" data-name="Group 162138" transform="translate(2.714 0.003)">
                <g id="Group_162137" data-name="Group 162137">
                  <path id="Path_2485" data-name="Path 2485" d="M45.052,420.834V436.15c-.211-.142-.415-.286-.608-.43-.212-.158-.413-.318-.607-.479V420.836Z" transform="translate(-43.837 -420.714)" fill="#007ce6"/>
                  <path id="Path_2486" data-name="Path 2486" d="M50.284,420.826v18.228q-.625-.24-1.215-.486V420.828Z" transform="translate(-43.254 -420.715)" fill="#007ce6"/>
                  <path id="Path_2487" data-name="Path 2487" d="M55.516,420.818v20.071c-.287-.074-.571-.151-.854-.228-.121-.033-.241-.067-.36-.1V420.82Z" transform="translate(-42.671 -420.716)" fill="#007ce6"/>
                  <path id="Path_2488" data-name="Path 2488" d="M60.75,420.811v21.363q-.614-.115-1.215-.233V420.812Z" transform="translate(-42.088 -420.717)" fill="#007ce6"/>
                  <path id="Path_2489" data-name="Path 2489" d="M65.983,420.8v22.272q-.614-.078-1.215-.162V420.805Z" transform="translate(-41.505 -420.717)" fill="#007ce6"/>
                  <path id="Path_2490" data-name="Path 2490" d="M71.215,420.8v22.874c-.408-.032-.811-.066-1.215-.1V420.8Z" transform="translate(-40.922 -420.718)" fill="#007ce6"/>
                  <path id="Path_2491" data-name="Path 2491" d="M76.447,420.787V444q-.61-.022-1.215-.049V420.79Z" transform="translate(-40.339 -420.719)" fill="#007ce6"/>
                  <path id="Path_2492" data-name="Path 2492" d="M81.681,420.78v23.3c-.27,0-.542,0-.814,0h-.4v-23.3Z" transform="translate(-39.756 -420.72)" fill="#007ce6"/>
                  <path id="Path_2493" data-name="Path 2493" d="M86.913,420.773v23.16q-.6.028-1.215.052V420.774Z" transform="translate(-39.173 -420.721)" fill="#007ce6"/>
                  <path id="Path_2494" data-name="Path 2494" d="M92.146,420.765v22.77q-.605.055-1.215.1V420.766Z" transform="translate(-38.59 -420.722)" fill="#007ce6"/>
                  <path id="Path_2495" data-name="Path 2495" d="M97.378,420.757v22.1c-.4.058-.806.112-1.215.167v-22.27Z" transform="translate(-38.007 -420.723)" fill="#007ce6"/>
                  <path id="Path_2496" data-name="Path 2496" d="M102.61,420.749v21.117q-.6.123-1.214.238V420.751Z" transform="translate(-37.424 -420.723)" fill="#007ce6"/>
                  <path id="Path_2497" data-name="Path 2497" d="M107.844,420.741v19.712q-.6.172-1.215.338V420.743Z" transform="translate(-36.841 -420.724)" fill="#007ce6"/>
                  <path id="Path_2498" data-name="Path 2498" d="M113.076,420.734v17.672c-.391.17-.8.337-1.214.5V420.735Z" transform="translate(-36.257 -420.725)" fill="#007ce6"/>
                  <path id="Path_2499" data-name="Path 2499" d="M118.309,420.726V434.9a13.55,13.55,0,0,1-1.215.98V420.727Z" transform="translate(-35.674 -420.726)" fill="#007ce6"/>
                </g>
              </g>
            </g>
            <g id="Group_162145" data-name="Group 162145" transform="translate(0.016)">
              <g id="Group_162144" data-name="Group 162144">
                <path id="Path_2500" data-name="Path 2500" d="M129.036,422.076c0,6.872-19.613,12.443-43.813,12.443-3.306,0-6.527-.1-9.624-.3-3.894-.248-7.593-.644-11.019-1.164-3.059-.465-5.9-1.03-8.47-1.679-.785-.2-1.546-.4-2.278-.619a36.616,36.616,0,0,1-7.976-3.213c-.4-.232-.778-.468-1.127-.708-2.139-1.466-3.32-3.074-3.32-4.759a2.931,2.931,0,0,1,.036-.461c.849-6.657,20.126-11.981,43.778-11.981a144.694,144.694,0,0,1,16.456.908q1.472.168,2.89.368a88.754,88.754,0,0,1,11.152,2.234q1.08.3,2.087.615a36.356,36.356,0,0,1,6.138,2.493,13.046,13.046,0,0,1,3.94,2.983A4.71,4.71,0,0,1,129,421.615,2.93,2.93,0,0,1,129.036,422.076Z" transform="translate(-41.409 -409.634)" fill="#61c2ff"/>
                <path id="Path_2501" data-name="Path 2501" d="M125.563,418.571,73.276,433.555c-3.894-.248-7.593-.644-11.019-1.164l59.366-16.8A13.046,13.046,0,0,1,125.563,418.571Z" transform="translate(-39.086 -408.971)" fill="#fff" opacity="0.3"/>
                <path id="Path_2502" data-name="Path 2502" d="M104.235,410.819,45.523,427.452c-.4-.232-.778-.468-1.127-.708l56.949-16.293Q102.817,410.619,104.235,410.819Z" transform="translate(-41.076 -409.543)" fill="#fff" opacity="0.3"/>
                <path id="Path_2503" data-name="Path 2503" d="M116.562,413.407l-61.7,17.617c-.785-.2-1.546-.4-2.278-.619l61.888-17.613Q115.555,413.089,116.562,413.407Z" transform="translate(-40.164 -409.282)" fill="#fff" opacity="0.3"/>
                <path id="Path_2504" data-name="Path 2504" d="M119.359,421.827a3.51,3.51,0,0,1-.034.457c-.845,5.273-16.211,9.488-34.984,9.488s-34.138-4.216-34.983-9.488a3.51,3.51,0,0,1-.034-.457c0-5.484,15.709-9.945,35.018-9.945S119.359,416.343,119.359,421.827Z" transform="translate(-40.527 -409.383)" fill="#007ce6"/>
                <path id="Path_2505" data-name="Path 2505" d="M119.321,422.192c-.845,5.273-16.211,9.488-34.984,9.488-.42,0-.835,0-1.25-.007a114.449,114.449,0,0,1-11.882-.719,78.6,78.6,0,0,1-10.017-1.764c-.748-.188-1.466-.383-2.16-.589A24.756,24.756,0,0,1,51.7,425.34a8.424,8.424,0,0,1-1.065-.9,4.182,4.182,0,0,1-1.285-2.248c.845-5.274,16.211-9.49,34.983-9.49,2.375,0,4.7.068,6.943.2,1.144.066,2.273.147,3.376.245a85.33,85.33,0,0,1,12.167,1.886q1.144.272,2.208.575a30.117,30.117,0,0,1,6.776,2.683,7.477,7.477,0,0,1,3.294,3.159A3.029,3.029,0,0,1,119.321,422.192Z" transform="translate(-40.524 -409.292)" fill="#009ef3"/>
                <path id="Path_2506" data-name="Path 2506" d="M116.912,420.886,80.9,431.114a114.441,114.441,0,0,1-11.882-.719l44.6-12.668A7.476,7.476,0,0,1,116.912,420.886Z" transform="translate(-38.333 -408.732)" fill="#fff" opacity="0.2"/>
                <path id="Path_2507" data-name="Path 2507" d="M94.528,413.123l-42.953,12.2a8.424,8.424,0,0,1-1.065-.9l40.641-11.542C92.3,412.945,93.424,413.026,94.528,413.123Z" transform="translate(-40.395 -409.272)" fill="#fff" opacity="0.2"/>
                <path id="Path_2508" data-name="Path 2508" d="M108.062,415.371,60.217,428.958c-.748-.188-1.466-.383-2.16-.589l47.8-13.573Q107,415.068,108.062,415.371Z" transform="translate(-39.554 -409.059)" fill="#fff" opacity="0.2"/>
                <g id="Group_162143" data-name="Group 162143" transform="translate(27.608 5.196)">
                  <g id="Group_162141" data-name="Group 162141" transform="translate(0.215 0.549)">
                    <g id="Group_162140" data-name="Group 162140">
                      <path id="Path_2509" data-name="Path 2509" d="M87.3,427.143V428.8H79.912v-1.578a96.758,96.758,0,0,1-13.47-1.041l3.983-2.561a78.889,78.889,0,0,0,12.108.952c3.512,0,4.77-.208,4.77-.566,0-1.309-20.285-.252-20.285-4.138,0-1.682,4.3-3.1,12.894-3.439V414.8H87.3V416.4a85.677,85.677,0,0,1,10.64.864L94.222,419.8A71.911,71.911,0,0,0,84,419.031c-3.617,0-4.77.3-4.77.655,0,1.25,20.285.209,20.285,4.049C99.516,425.343,95.428,426.742,87.3,427.143Z" transform="translate(-66.442 -414.803)" fill="#007ce6"/>
                    </g>
                  </g>
                  <g id="Group_162142" data-name="Group 162142">
                    <path id="Path_2510" data-name="Path 2510" d="M87.109,426.649V428.3h-7.39v-1.577a96.713,96.713,0,0,1-13.47-1.043l3.983-2.561a78.719,78.719,0,0,0,12.108.954c3.511,0,4.769-.209,4.769-.566,0-1.31-20.285-.253-20.285-4.139,0-1.682,4.3-3.1,12.895-3.438v-1.623h7.39V415.9a85.275,85.275,0,0,1,10.641.864l-3.722,2.545a71.763,71.763,0,0,0-10.221-.775c-3.617,0-4.769.3-4.769.656,0,1.25,20.285.208,20.285,4.049C99.323,424.847,95.234,426.247,87.109,426.649Z" transform="translate(-66.249 -414.309)" fill="#61c2ff"/>
                  </g>
                </g>
              </g>
            </g>
          </g>
          <g id="Group_162156" data-name="Group 162156" transform="translate(2.754 29.077)">
            <g id="Group_162149" data-name="Group 162149" transform="translate(0 12.325)">
              <path id="Path_2511" data-name="Path 2511" d="M131.523,416.621c0,.042,0,.082,0,.124a6,6,0,0,1-2.3,4.341,13.212,13.212,0,0,1-1.215.981,24.732,24.732,0,0,1-4.6,2.529q-.589.255-1.215.5c-1.4.553-2.942,1.07-4.6,1.548-.4.114-.8.228-1.214.337q-2.181.585-4.6,1.077-.6.123-1.215.238-2.216.42-4.6.758c-.4.058-.807.112-1.215.167q-2.241.29-4.6.508c-.4.036-.807.071-1.215.1q-2.254.185-4.6.294-.605.028-1.215.052-2.267.085-4.6.1l-.812,0h-.4q-2.332,0-4.6-.086c-.408-.013-.811-.03-1.215-.048q-1.725-.075-3.409-.192c-.4-.028-.8-.057-1.193-.089s-.811-.066-1.215-.1q-2.356-.207-4.6-.492-.613-.077-1.215-.161-1.427-.2-2.8-.423-.912-.152-1.8-.315-.614-.115-1.215-.233c-1.609-.319-3.148-.671-4.6-1.05-.288-.074-.572-.151-.854-.228l-.361-.1c-.658-.184-1.3-.376-1.918-.572q-1.409-.448-2.683-.932-.624-.24-1.214-.486a27.8,27.8,0,0,1-4.081-2.077c-.178-.112-.352-.226-.52-.34q-.317-.213-.607-.431c-.213-.158-.415-.318-.608-.479-1.755-1.462-2.713-3.046-2.713-4.7,0-.117,0-.232.016-.348l0-9.356,2.693,0,1.215,0,4.6-.007,1.214,0,3.591-.006h1.01l1.215,0,4.6-.007h1.215l4.6-.008h1.215l4.6-.008h1.215l4.6-.006,1.215,0,4.6-.006,1.214,0,4.6-.006,1.215,0,4.6-.007h1.215l4.6-.008h1.215l4.6-.007,1.215,0,4.6-.007,1.214,0h.3l4.3-.007h1.215l4.6-.008h1.215l2.288,0,.016,9.708Z" transform="translate(-43.873 -406.913)" fill="#009ef3"/>
              <g id="Group_162148" data-name="Group 162148" transform="translate(2.713 0.003)">
                <g id="Group_162147" data-name="Group 162147">
                  <path id="Path_2512" data-name="Path 2512" d="M47.529,407.024v15.317q-.317-.213-.607-.431c-.213-.158-.415-.318-.608-.479v-14.4Z" transform="translate(-46.314 -406.904)" fill="#007ce6"/>
                  <path id="Path_2513" data-name="Path 2513" d="M52.761,407.016v18.228q-.624-.24-1.214-.486V407.018Z" transform="translate(-45.731 -406.905)" fill="#007ce6"/>
                  <path id="Path_2514" data-name="Path 2514" d="M57.994,407.008v20.071c-.288-.074-.572-.151-.854-.228l-.361-.1V407.01Z" transform="translate(-45.148 -406.906)" fill="#007ce6"/>
                  <path id="Path_2515" data-name="Path 2515" d="M63.228,407v21.363q-.614-.115-1.215-.233V407Z" transform="translate(-44.565 -406.906)" fill="#007ce6"/>
                  <path id="Path_2516" data-name="Path 2516" d="M68.46,406.993v22.271q-.613-.077-1.215-.161V406.994Z" transform="translate(-43.982 -406.907)" fill="#007ce6"/>
                  <path id="Path_2517" data-name="Path 2517" d="M73.692,406.985v22.873q-.61-.047-1.215-.1V406.986Z" transform="translate(-43.399 -406.908)" fill="#007ce6"/>
                  <path id="Path_2518" data-name="Path 2518" d="M78.925,406.977v23.211c-.408-.013-.811-.03-1.215-.048V406.98Z" transform="translate(-42.816 -406.909)" fill="#007ce6"/>
                  <path id="Path_2519" data-name="Path 2519" d="M84.158,406.969v23.3l-.812,0h-.4v-23.3Z" transform="translate(-42.233 -406.91)" fill="#007ce6"/>
                  <path id="Path_2520" data-name="Path 2520" d="M89.391,406.962v23.161q-.605.028-1.215.052V406.964Z" transform="translate(-41.65 -406.911)" fill="#007ce6"/>
                  <path id="Path_2521" data-name="Path 2521" d="M94.623,406.955v22.77c-.4.036-.807.071-1.215.1V406.956Z" transform="translate(-41.067 -406.912)" fill="#007ce6"/>
                  <path id="Path_2522" data-name="Path 2522" d="M99.856,406.947v22.1c-.4.058-.807.112-1.215.167v-22.27Z" transform="translate(-40.484 -406.913)" fill="#007ce6"/>
                  <path id="Path_2523" data-name="Path 2523" d="M105.088,406.939v21.117q-.6.123-1.215.238V406.941Z" transform="translate(-39.901 -406.913)" fill="#007ce6"/>
                  <path id="Path_2524" data-name="Path 2524" d="M110.321,406.931v19.712c-.4.114-.8.228-1.214.337V406.933Z" transform="translate(-39.317 -406.914)" fill="#007ce6"/>
                  <path id="Path_2525" data-name="Path 2525" d="M115.554,406.924V424.6q-.589.255-1.215.5V406.925Z" transform="translate(-38.734 -406.915)" fill="#007ce6"/>
                  <path id="Path_2526" data-name="Path 2526" d="M120.786,406.916v14.171a13.212,13.212,0,0,1-1.215.981V406.917Z" transform="translate(-38.151 -406.916)" fill="#007ce6"/>
                </g>
              </g>
            </g>
            <g id="Group_162155" data-name="Group 162155" transform="translate(0.016)">
              <g id="Group_162154" data-name="Group 162154">
                <path id="Path_2527" data-name="Path 2527" d="M131.513,408.266c0,6.872-19.612,12.443-43.813,12.443-3.305,0-6.526-.1-9.624-.3-3.894-.247-7.592-.642-11.019-1.164-3.059-.465-5.9-1.029-8.469-1.679-.786-.2-1.547-.4-2.278-.619a36.619,36.619,0,0,1-7.976-3.212c-.4-.232-.779-.469-1.127-.709-2.141-1.465-3.32-3.073-3.32-4.758a3.069,3.069,0,0,1,.034-.461c.85-6.659,20.126-11.981,43.778-11.981a144.95,144.95,0,0,1,16.456.907q1.472.17,2.89.369a88.523,88.523,0,0,1,11.152,2.234q1.08.3,2.087.615a36.318,36.318,0,0,1,6.14,2.493,13.04,13.04,0,0,1,3.939,2.983,4.7,4.7,0,0,1,1.116,2.381A2.93,2.93,0,0,1,131.513,408.266Z" transform="translate(-43.887 -395.824)" fill="#61c2ff"/>
                <path id="Path_2528" data-name="Path 2528" d="M128.04,404.761,75.753,419.744c-3.894-.247-7.592-.642-11.019-1.164l59.367-16.8A13.04,13.04,0,0,1,128.04,404.761Z" transform="translate(-41.564 -395.161)" fill="#fff" opacity="0.3"/>
                <path id="Path_2529" data-name="Path 2529" d="M106.712,397.009,48,413.643c-.4-.232-.779-.469-1.127-.709l56.948-16.293Q105.294,396.81,106.712,397.009Z" transform="translate(-43.554 -395.733)" fill="#fff" opacity="0.3"/>
                <path id="Path_2530" data-name="Path 2530" d="M119.039,399.6l-61.7,17.616c-.786-.2-1.547-.4-2.278-.619l61.887-17.612Q118.032,399.279,119.039,399.6Z" transform="translate(-42.642 -395.472)" fill="#fff" opacity="0.3"/>
                <path id="Path_2531" data-name="Path 2531" d="M121.836,408.017a3.68,3.68,0,0,1-.033.456c-.846,5.273-16.212,9.489-34.984,9.489s-34.138-4.217-34.984-9.489a3.679,3.679,0,0,1-.033-.456c0-5.485,15.708-9.945,35.018-9.945S121.836,402.532,121.836,408.017Z" transform="translate(-43.005 -395.573)" fill="#007ce6"/>
                <path id="Path_2532" data-name="Path 2532" d="M121.8,408.381c-.846,5.273-16.212,9.489-34.984,9.489-.42,0-.836,0-1.251-.008a114.168,114.168,0,0,1-11.882-.718,78.748,78.748,0,0,1-10.016-1.764c-.748-.188-1.466-.383-2.159-.589a24.77,24.77,0,0,1-7.324-3.262,8.517,8.517,0,0,1-1.066-.9,4.188,4.188,0,0,1-1.285-2.25c.846-5.273,16.212-9.489,34.984-9.489,2.375,0,4.7.068,6.943.2,1.144.066,2.272.147,3.377.245a85.314,85.314,0,0,1,12.166,1.886c.762.181,1.5.372,2.208.574a30.177,30.177,0,0,1,6.777,2.684,7.483,7.483,0,0,1,3.293,3.158A3.012,3.012,0,0,1,121.8,408.381Z" transform="translate(-43.002 -395.482)" fill="#009ef3"/>
                <path id="Path_2533" data-name="Path 2533" d="M119.389,407.075,83.373,417.3a114.168,114.168,0,0,1-11.882-.718l44.6-12.668A7.483,7.483,0,0,1,119.389,407.075Z" transform="translate(-40.811 -394.922)" fill="#fff" opacity="0.2"/>
                <path id="Path_2534" data-name="Path 2534" d="M97.006,399.313l-42.953,12.2a8.517,8.517,0,0,1-1.066-.9L93.63,399.069C94.773,399.135,95.9,399.216,97.006,399.313Z" transform="translate(-42.873 -395.462)" fill="#fff" opacity="0.2"/>
                <path id="Path_2535" data-name="Path 2535" d="M110.539,401.559,62.7,415.148c-.748-.188-1.466-.383-2.159-.589l47.795-13.573C109.093,401.167,109.831,401.358,110.539,401.559Z" transform="translate(-42.032 -395.249)" fill="#fff" opacity="0.2"/>
                <g id="Group_162153" data-name="Group 162153" transform="translate(27.607 5.195)">
                  <g id="Group_162151" data-name="Group 162151" transform="translate(0.216 0.55)">
                    <g id="Group_162150" data-name="Group 162150">
                      <path id="Path_2536" data-name="Path 2536" d="M89.78,413.333v1.653H82.39v-1.578a96.743,96.743,0,0,1-13.47-1.041l3.983-2.561a78.866,78.866,0,0,0,12.108.952c3.511,0,4.769-.208,4.769-.566,0-1.309-20.285-.253-20.285-4.138,0-1.683,4.3-3.1,12.895-3.439v-1.623h7.39v1.593a85.485,85.485,0,0,1,10.641.864L96.7,405.994a71.777,71.777,0,0,0-10.222-.774c-3.617,0-4.769.3-4.769.655,0,1.25,20.285.209,20.285,4.049C101.994,411.531,97.9,412.932,89.78,413.333Z" transform="translate(-68.92 -400.993)" fill="#007ce6"/>
                    </g>
                  </g>
                  <g id="Group_162152" data-name="Group 162152">
                    <path id="Path_2537" data-name="Path 2537" d="M89.587,412.838v1.653H82.2v-1.578a96.752,96.752,0,0,1-13.47-1.041l3.983-2.561a78.747,78.747,0,0,0,12.108.952c3.512,0,4.77-.208,4.77-.566,0-1.309-20.285-.252-20.285-4.138,0-1.682,4.3-3.1,12.894-3.439V400.5h7.391v1.593a85.677,85.677,0,0,1,10.64.864L96.506,405.5a71.763,71.763,0,0,0-10.221-.775c-3.617,0-4.77.3-4.77.655,0,1.25,20.285.209,20.285,4.049C101.8,411.038,97.712,412.437,89.587,412.838Z" transform="translate(-68.726 -400.498)" fill="#61c2ff"/>
                  </g>
                </g>
              </g>
            </g>
          </g>
          <g id="Group_162166" data-name="Group 162166" transform="translate(2.352 13.728)">
            <g id="Group_162159" data-name="Group 162159" transform="translate(0 12.325)">
              <path id="Path_2538" data-name="Path 2538" d="M131.161,402.811c0,.042,0,.082,0,.123a6,6,0,0,1-2.3,4.342,13.36,13.36,0,0,1-1.215.98,24.644,24.644,0,0,1-4.6,2.53c-.391.17-.8.336-1.214.5-1.4.552-2.943,1.069-4.6,1.547-.4.116-.8.229-1.215.338q-2.179.585-4.6,1.077c-.4.081-.8.161-1.214.238q-2.217.42-4.6.758-.6.087-1.215.166-2.241.292-4.6.508-.605.055-1.215.106-2.256.185-4.6.294c-.4.019-.807.037-1.214.051q-2.267.085-4.6.1l-.812,0h-.4q-2.332,0-4.6-.086c-.407-.013-.811-.03-1.214-.048q-1.727-.077-3.409-.192c-.4-.029-.8-.058-1.193-.089s-.811-.066-1.215-.1q-2.357-.205-4.6-.491c-.409-.052-.814-.1-1.215-.161q-1.429-.2-2.8-.423-.914-.152-1.8-.316-.612-.113-1.215-.233-2.414-.478-4.6-1.05c-.287-.073-.571-.15-.854-.228-.121-.032-.241-.067-.36-.1-.658-.184-1.3-.376-1.918-.572q-1.41-.448-2.683-.932-.625-.242-1.215-.486a27.854,27.854,0,0,1-4.081-2.077c-.178-.112-.352-.226-.519-.34-.211-.142-.415-.287-.608-.431-.212-.158-.413-.318-.607-.479-1.755-1.463-2.714-3.046-2.714-4.7,0-.116.006-.231.017-.348l0-9.355,2.693,0,1.215,0,4.6-.006,1.215,0,3.591-.006h1.01l1.214,0,4.6-.007h1.215l4.6-.008H70.7l4.6-.008h1.215l4.6-.007,1.214,0,4.6-.007,1.215,0,4.6-.007h1.214l4.6-.007,1.215,0,4.6-.007,1.215,0,4.6-.006,1.214,0,4.6-.006,1.215,0h.3l4.3-.006h1.214l4.6-.008h1.215l2.287,0,.017,9.708Z" transform="translate(-43.511 -393.103)" fill="#009ef3"/>
              <g id="Group_162158" data-name="Group 162158" transform="translate(2.714 0.003)">
                <g id="Group_162157" data-name="Group 162157">
                  <path id="Path_2539" data-name="Path 2539" d="M47.168,393.213v15.318c-.211-.142-.415-.287-.608-.431-.212-.158-.413-.318-.607-.479v-14.4Z" transform="translate(-45.953 -393.094)" fill="#007ce6"/>
                  <path id="Path_2540" data-name="Path 2540" d="M52.4,393.206v18.228q-.625-.242-1.215-.486V393.208Z" transform="translate(-45.37 -393.095)" fill="#007ce6"/>
                  <path id="Path_2541" data-name="Path 2541" d="M57.632,393.2v20.07c-.287-.073-.571-.15-.854-.228-.121-.032-.241-.067-.36-.1V393.2Z" transform="translate(-44.787 -393.096)" fill="#007ce6"/>
                  <path id="Path_2542" data-name="Path 2542" d="M62.866,393.191v21.362q-.612-.113-1.215-.233V393.192Z" transform="translate(-44.204 -393.096)" fill="#007ce6"/>
                  <path id="Path_2543" data-name="Path 2543" d="M68.1,393.183v22.271c-.409-.052-.814-.1-1.215-.161V393.184Z" transform="translate(-43.621 -393.097)" fill="#007ce6"/>
                  <path id="Path_2544" data-name="Path 2544" d="M73.331,393.175v22.873q-.61-.047-1.215-.1v-22.77Z" transform="translate(-43.038 -393.098)" fill="#007ce6"/>
                  <path id="Path_2545" data-name="Path 2545" d="M78.563,393.167v23.211c-.407-.013-.811-.03-1.214-.048V393.169Z" transform="translate(-42.455 -393.099)" fill="#007ce6"/>
                  <path id="Path_2546" data-name="Path 2546" d="M83.8,393.159v23.3l-.812,0h-.4v-23.3Z" transform="translate(-41.872 -393.1)" fill="#007ce6"/>
                  <path id="Path_2547" data-name="Path 2547" d="M89.029,393.152v23.161c-.4.019-.807.037-1.214.051V393.153Z" transform="translate(-41.289 -393.101)" fill="#007ce6"/>
                  <path id="Path_2548" data-name="Path 2548" d="M94.262,393.144v22.77q-.605.055-1.215.106V393.146Z" transform="translate(-40.706 -393.102)" fill="#007ce6"/>
                  <path id="Path_2549" data-name="Path 2549" d="M99.494,393.136v22.105q-.6.087-1.215.166V393.138Z" transform="translate(-40.123 -393.103)" fill="#007ce6"/>
                  <path id="Path_2550" data-name="Path 2550" d="M104.726,393.128v21.118c-.4.081-.8.161-1.214.238V393.131Z" transform="translate(-39.54 -393.104)" fill="#007ce6"/>
                  <path id="Path_2551" data-name="Path 2551" d="M109.96,393.12v19.712c-.4.116-.8.229-1.215.338V393.123Z" transform="translate(-38.957 -393.104)" fill="#007ce6"/>
                  <path id="Path_2552" data-name="Path 2552" d="M115.192,393.114v17.672c-.391.17-.8.336-1.214.5V393.115Z" transform="translate(-38.373 -393.105)" fill="#007ce6"/>
                  <path id="Path_2553" data-name="Path 2553" d="M120.425,393.106v14.171a13.36,13.36,0,0,1-1.215.98v-15.15Z" transform="translate(-37.79 -393.106)" fill="#007ce6"/>
                </g>
              </g>
            </g>
            <g id="Group_162165" data-name="Group 162165" transform="translate(0.016)">
              <g id="Group_162164" data-name="Group 162164">
                <path id="Path_2554" data-name="Path 2554" d="M131.152,394.456c0,6.872-19.612,12.442-43.813,12.442-3.306,0-6.527-.1-9.624-.3-3.894-.248-7.593-.642-11.019-1.164-3.059-.465-5.9-1.03-8.47-1.679-.785-.2-1.546-.4-2.278-.619a36.621,36.621,0,0,1-7.976-3.212c-.4-.232-.778-.469-1.127-.709-2.139-1.466-3.32-3.073-3.32-4.758a2.945,2.945,0,0,1,.036-.462c.849-6.657,20.126-11.98,43.778-11.98a144.951,144.951,0,0,1,16.456.907q1.472.17,2.89.368a88.962,88.962,0,0,1,11.152,2.234q1.08.3,2.087.616a36.36,36.36,0,0,1,6.138,2.492,13.046,13.046,0,0,1,3.94,2.984,4.7,4.7,0,0,1,1.116,2.38A2.942,2.942,0,0,1,131.152,394.456Z" transform="translate(-43.525 -382.014)" fill="#61c2ff"/>
                <path id="Path_2555" data-name="Path 2555" d="M127.679,390.951,75.392,405.934c-3.894-.248-7.593-.642-11.019-1.164l59.366-16.8A13.046,13.046,0,0,1,127.679,390.951Z" transform="translate(-41.202 -381.351)" fill="#fff" opacity="0.3"/>
                <path id="Path_2556" data-name="Path 2556" d="M106.351,383.2,47.639,399.833c-.4-.232-.778-.469-1.127-.709l56.949-16.293Q104.933,383,106.351,383.2Z" transform="translate(-43.192 -381.923)" fill="#fff" opacity="0.3"/>
                <path id="Path_2557" data-name="Path 2557" d="M118.678,385.787,56.98,403.4c-.785-.2-1.546-.4-2.278-.619l61.889-17.613Q117.671,385.469,118.678,385.787Z" transform="translate(-42.28 -381.662)" fill="#fff" opacity="0.3"/>
                <path id="Path_2558" data-name="Path 2558" d="M121.475,394.206a3.494,3.494,0,0,1-.034.457c-.845,5.273-16.211,9.488-34.984,9.488s-34.138-4.216-34.983-9.488a3.494,3.494,0,0,1-.034-.457c0-5.484,15.709-9.945,35.018-9.945S121.475,388.722,121.475,394.206Z" transform="translate(-42.643 -381.764)" fill="#007ce6"/>
                <path id="Path_2559" data-name="Path 2559" d="M121.437,394.571c-.845,5.273-16.211,9.488-34.984,9.488-.419,0-.835,0-1.25-.007a113.856,113.856,0,0,1-11.882-.719A78.41,78.41,0,0,1,63.3,401.57c-.747-.187-1.465-.382-2.159-.588a24.785,24.785,0,0,1-7.324-3.262,8.613,8.613,0,0,1-1.065-.9,4.181,4.181,0,0,1-1.285-2.25c.845-5.273,16.211-9.49,34.983-9.49,2.375,0,4.7.069,6.943.2,1.144.064,2.273.147,3.377.243a85.331,85.331,0,0,1,12.167,1.886c.762.182,1.5.373,2.208.575a30.062,30.062,0,0,1,6.776,2.684,7.475,7.475,0,0,1,3.294,3.158A3.043,3.043,0,0,1,121.437,394.571Z" transform="translate(-42.64 -381.672)" fill="#009ef3"/>
                <path id="Path_2560" data-name="Path 2560" d="M119.028,393.265,83.012,403.493a113.856,113.856,0,0,1-11.882-.719l44.6-12.667A7.475,7.475,0,0,1,119.028,393.265Z" transform="translate(-40.449 -381.112)" fill="#fff" opacity="0.2"/>
                <path id="Path_2561" data-name="Path 2561" d="M96.644,385.5,53.691,397.7a8.613,8.613,0,0,1-1.065-.9l40.641-11.542C94.411,385.323,95.54,385.406,96.644,385.5Z" transform="translate(-42.511 -381.652)" fill="#fff" opacity="0.2"/>
                <path id="Path_2562" data-name="Path 2562" d="M110.178,387.75,62.333,401.337c-.747-.187-1.465-.382-2.159-.588l47.8-13.574C108.732,387.357,109.47,387.548,110.178,387.75Z" transform="translate(-41.67 -381.439)" fill="#fff" opacity="0.2"/>
                <g id="Group_162163" data-name="Group 162163" transform="translate(27.608 5.195)">
                  <g id="Group_162161" data-name="Group 162161" transform="translate(0.215 0.55)">
                    <g id="Group_162160" data-name="Group 162160">
                      <path id="Path_2563" data-name="Path 2563" d="M89.419,399.523v1.652H82.028V399.6a96.732,96.732,0,0,1-13.47-1.043L72.541,396a78.889,78.889,0,0,0,12.108.952c3.512,0,4.77-.209,4.77-.566,0-1.31-20.285-.253-20.285-4.139,0-1.682,4.3-3.1,12.894-3.438v-1.623h7.391v1.593a85.485,85.485,0,0,1,10.641.864l-3.722,2.545a71.758,71.758,0,0,0-10.221-.775c-3.617,0-4.77.3-4.77.656,0,1.25,20.285.208,20.285,4.049C101.632,397.721,97.544,399.121,89.419,399.523Z" transform="translate(-68.558 -387.183)" fill="#007ce6"/>
                    </g>
                  </g>
                  <g id="Group_162162" data-name="Group 162162">
                    <path id="Path_2564" data-name="Path 2564" d="M89.225,399.028v1.653h-7.39V399.1a96.742,96.742,0,0,1-13.47-1.041l3.983-2.561a78.889,78.889,0,0,0,12.108.952c3.511,0,4.769-.208,4.769-.566,0-1.309-20.283-.253-20.283-4.138,0-1.683,4.3-3.1,12.894-3.439v-1.623h7.39v1.593a85.479,85.479,0,0,1,10.641.864l-3.721,2.545a71.942,71.942,0,0,0-10.222-.774c-3.617,0-4.769.3-4.769.655,0,1.25,20.285.209,20.285,4.049C101.439,397.228,97.35,398.627,89.225,399.028Z" transform="translate(-68.365 -386.688)" fill="#61c2ff"/>
                  </g>
                </g>
              </g>
            </g>
          </g>
          <g id="Group_162176" data-name="Group 162176" transform="translate(0.171)">
            <g id="Group_162169" data-name="Group 162169" transform="translate(0 12.325)">
              <path id="Path_2565" data-name="Path 2565" d="M129.2,390.459c0,.042,0,.082,0,.123a6,6,0,0,1-2.305,4.342,13.347,13.347,0,0,1-1.214.981,24.742,24.742,0,0,1-4.6,2.528c-.392.17-.8.336-1.215.5-1.4.553-2.942,1.07-4.6,1.547q-.6.173-1.215.338-2.179.585-4.6,1.077-.6.123-1.215.238-2.216.42-4.6.758c-.4.058-.806.112-1.215.167q-2.241.29-4.6.508-.6.055-1.214.1-2.256.185-4.6.295c-.4.019-.807.037-1.215.051q-2.267.087-4.6.1c-.27,0-.542,0-.814,0-.133,0-.268,0-.4,0q-2.332,0-4.6-.086c-.407-.013-.811-.03-1.215-.048q-1.725-.075-3.408-.192c-.4-.028-.8-.057-1.193-.089s-.812-.066-1.215-.1q-2.357-.205-4.6-.491-.612-.077-1.215-.161-1.427-.2-2.8-.423-.914-.152-1.8-.316-.614-.113-1.215-.232-2.414-.479-4.6-1.05c-.287-.074-.571-.151-.854-.228l-.361-.1c-.657-.185-1.3-.376-1.918-.572q-1.409-.448-2.682-.932-.625-.24-1.215-.486A27.8,27.8,0,0,1,46,396.531c-.178-.112-.352-.226-.52-.34q-.317-.213-.607-.431-.318-.237-.607-.479c-1.755-1.462-2.714-3.046-2.714-4.7,0-.116.006-.231.017-.348l0-9.355,2.694,0,1.214,0,4.6-.007,1.215,0,3.59-.006h1.01l1.215,0,4.6-.007h1.215l4.6-.008H68.74l4.6-.008h1.215l4.6-.007,1.215,0,4.6-.006,1.215,0,4.6-.006,1.215,0,4.6-.007,1.214,0,4.6-.007h1.215l4.6-.007,1.215,0,4.6-.007,1.215,0h.3l4.3-.007h1.215l4.6-.008H126.9l2.288,0,.017,9.708Z" transform="translate(-41.549 -380.751)" fill="#009ef3"/>
              <g id="Group_162168" data-name="Group 162168" transform="translate(2.714 0.003)">
                <g id="Group_162167" data-name="Group 162167">
                  <path id="Path_2566" data-name="Path 2566" d="M45.2,380.862v15.317q-.317-.213-.607-.431-.318-.237-.607-.479v-14.4Z" transform="translate(-43.991 -380.742)" fill="#007ce6"/>
                  <path id="Path_2567" data-name="Path 2567" d="M50.438,380.854v18.228q-.625-.24-1.215-.486V380.856Z" transform="translate(-43.408 -380.743)" fill="#007ce6"/>
                  <path id="Path_2568" data-name="Path 2568" d="M55.67,380.846v20.071c-.287-.074-.571-.151-.854-.228l-.361-.1v-19.74Z" transform="translate(-42.825 -380.744)" fill="#007ce6"/>
                  <path id="Path_2569" data-name="Path 2569" d="M60.9,380.839V402.2q-.614-.113-1.215-.232V380.84Z" transform="translate(-42.242 -380.745)" fill="#007ce6"/>
                  <path id="Path_2570" data-name="Path 2570" d="M66.136,380.831V403.1q-.612-.077-1.215-.161V380.832Z" transform="translate(-41.659 -380.745)" fill="#007ce6"/>
                  <path id="Path_2571" data-name="Path 2571" d="M71.369,380.823V403.7q-.612-.047-1.215-.1v-22.77Z" transform="translate(-41.076 -380.746)" fill="#007ce6"/>
                  <path id="Path_2572" data-name="Path 2572" d="M76.6,380.815v23.211c-.407-.013-.811-.03-1.215-.048V380.817Z" transform="translate(-40.493 -380.747)" fill="#007ce6"/>
                  <path id="Path_2573" data-name="Path 2573" d="M81.835,380.807v23.3c-.27,0-.542,0-.814,0-.133,0-.268,0-.4,0v-23.3Z" transform="translate(-39.91 -380.748)" fill="#007ce6"/>
                  <path id="Path_2574" data-name="Path 2574" d="M87.067,380.8v23.161c-.4.019-.807.037-1.215.051V380.8Z" transform="translate(-39.327 -380.749)" fill="#007ce6"/>
                  <path id="Path_2575" data-name="Path 2575" d="M92.3,380.792v22.771q-.6.055-1.214.1V380.794Z" transform="translate(-38.744 -380.75)" fill="#007ce6"/>
                  <path id="Path_2576" data-name="Path 2576" d="M97.532,380.785v22.1c-.4.058-.806.112-1.215.167v-22.27Z" transform="translate(-38.161 -380.751)" fill="#007ce6"/>
                  <path id="Path_2577" data-name="Path 2577" d="M102.764,380.777v21.117q-.6.123-1.215.238V380.779Z" transform="translate(-37.578 -380.751)" fill="#007ce6"/>
                  <path id="Path_2578" data-name="Path 2578" d="M108,380.769V400.48q-.6.173-1.215.338V380.771Z" transform="translate(-36.995 -380.752)" fill="#007ce6"/>
                  <path id="Path_2579" data-name="Path 2579" d="M113.23,380.762v17.672c-.392.17-.8.336-1.215.5V380.763Z" transform="translate(-36.412 -380.753)" fill="#007ce6"/>
                  <path id="Path_2580" data-name="Path 2580" d="M118.462,380.754v14.171a13.347,13.347,0,0,1-1.214.981V380.755Z" transform="translate(-35.828 -380.754)" fill="#007ce6"/>
                </g>
              </g>
            </g>
            <g id="Group_162175" data-name="Group 162175" transform="translate(0.016)">
              <g id="Group_162174" data-name="Group 162174">
                <path id="Path_2581" data-name="Path 2581" d="M129.189,382.1c0,6.872-19.612,12.444-43.812,12.444-3.306,0-6.527-.1-9.624-.3-3.894-.247-7.593-.642-11.02-1.164-3.058-.465-5.9-1.029-8.469-1.679q-1.179-.3-2.278-.619a36.622,36.622,0,0,1-7.976-3.212c-.4-.232-.778-.469-1.127-.708-2.139-1.466-3.32-3.074-3.32-4.759a2.955,2.955,0,0,1,.036-.462c.849-6.657,20.125-11.98,43.778-11.98a144.923,144.923,0,0,1,16.455.907q1.474.17,2.891.368a88.755,88.755,0,0,1,11.152,2.235q1.08.3,2.086.615a36.415,36.415,0,0,1,6.139,2.492,13.027,13.027,0,0,1,3.939,2.984,4.7,4.7,0,0,1,1.117,2.38A2.952,2.952,0,0,1,129.189,382.1Z" transform="translate(-41.563 -369.662)" fill="#61c2ff"/>
                <path id="Path_2582" data-name="Path 2582" d="M125.716,378.6,73.43,393.582c-3.894-.247-7.593-.642-11.02-1.164l59.367-16.8A13.027,13.027,0,0,1,125.716,378.6Z" transform="translate(-39.24 -368.999)" fill="#fff" opacity="0.3"/>
                <path id="Path_2583" data-name="Path 2583" d="M104.389,370.846,45.677,387.481c-.4-.232-.778-.469-1.127-.708L101.5,370.478Q102.972,370.648,104.389,370.846Z" transform="translate(-41.23 -369.571)" fill="#fff" opacity="0.3"/>
                <path id="Path_2584" data-name="Path 2584" d="M116.715,373.435l-61.7,17.616q-1.179-.3-2.278-.619l61.889-17.612Q115.709,373.117,116.715,373.435Z" transform="translate(-40.318 -369.31)" fill="#fff" opacity="0.3"/>
                <path id="Path_2585" data-name="Path 2585" d="M119.513,381.854a3.482,3.482,0,0,1-.034.457c-.846,5.274-16.211,9.489-34.984,9.489s-34.138-4.216-34.984-9.489a3.684,3.684,0,0,1-.033-.457c0-5.484,15.708-9.945,35.018-9.945S119.513,376.37,119.513,381.854Z" transform="translate(-40.681 -369.412)" fill="#007ce6"/>
                <path id="Path_2586" data-name="Path 2586" d="M119.476,382.219c-.846,5.274-16.211,9.489-34.984,9.489-.42,0-.836,0-1.25-.008a114.207,114.207,0,0,1-11.883-.718,78.777,78.777,0,0,1-10.016-1.764c-.748-.188-1.466-.383-2.159-.589a24.785,24.785,0,0,1-7.324-3.262,8.516,8.516,0,0,1-1.065-.9,4.19,4.19,0,0,1-1.286-2.249c.846-5.273,16.212-9.489,34.984-9.489,2.375,0,4.7.068,6.943.2,1.144.066,2.272.147,3.376.245a85.293,85.293,0,0,1,12.166,1.885q1.144.273,2.21.575a30.167,30.167,0,0,1,6.776,2.684,7.477,7.477,0,0,1,3.293,3.158A3,3,0,0,1,119.476,382.219Z" transform="translate(-40.678 -369.32)" fill="#009ef3"/>
                <path id="Path_2587" data-name="Path 2587" d="M117.065,380.913,81.05,391.141a114.207,114.207,0,0,1-11.883-.718l44.6-12.668A7.477,7.477,0,0,1,117.065,380.913Z" transform="translate(-38.487 -368.76)" fill="#fff" opacity="0.2"/>
                <path id="Path_2588" data-name="Path 2588" d="M94.682,373.152l-42.953,12.2a8.516,8.516,0,0,1-1.065-.9l40.641-11.542C92.449,372.973,93.577,373.054,94.682,373.152Z" transform="translate(-40.549 -369.3)" fill="#fff" opacity="0.2"/>
                <path id="Path_2589" data-name="Path 2589" d="M108.216,375.4,60.371,388.986c-.748-.188-1.466-.383-2.159-.589l47.795-13.574Q107.15,375.1,108.216,375.4Z" transform="translate(-39.708 -369.087)" fill="#fff" opacity="0.2"/>
                <g id="Group_162173" data-name="Group 162173" transform="translate(27.607 5.195)">
                  <g id="Group_162171" data-name="Group 162171" transform="translate(0.216 0.55)">
                    <g id="Group_162170" data-name="Group 162170">
                      <path id="Path_2590" data-name="Path 2590" d="M87.457,387.171v1.653H80.066v-1.578A96.757,96.757,0,0,1,66.6,386.2l3.983-2.561a78.889,78.889,0,0,0,12.108.952c3.512,0,4.77-.208,4.77-.566,0-1.31-20.285-.253-20.285-4.138,0-1.683,4.3-3.1,12.894-3.439v-1.623h7.391v1.593a85.478,85.478,0,0,1,10.64.864l-3.721,2.545a71.766,71.766,0,0,0-10.221-.774c-3.618,0-4.77.3-4.77.655,0,1.25,20.285.208,20.285,4.049C99.67,385.369,95.581,386.769,87.457,387.171Z" transform="translate(-66.596 -374.831)" fill="#007ce6"/>
                    </g>
                  </g>
                  <g id="Group_162172" data-name="Group 162172">
                    <path id="Path_2591" data-name="Path 2591" d="M87.263,386.677v1.652h-7.39v-1.578A96.78,96.78,0,0,1,66.4,385.709l3.984-2.561a78.732,78.732,0,0,0,12.108.952c3.511,0,4.769-.208,4.769-.566,0-1.309-20.285-.252-20.285-4.138,0-1.682,4.3-3.1,12.895-3.439v-1.623h7.39v1.593a85.7,85.7,0,0,1,10.641.864l-3.722,2.546a71.758,71.758,0,0,0-10.221-.775c-3.617,0-4.77.3-4.77.655,0,1.25,20.286.209,20.286,4.049C99.477,384.876,95.388,386.275,87.263,386.677Z" transform="translate(-66.402 -374.336)" fill="#61c2ff"/>
                  </g>
                </g>
              </g>
            </g>
          </g>
        </g>
      </g>
      <g id="Group_162200" data-name="Group 162200" transform="translate(77.451 29.077)">
        <g id="Group_162199" data-name="Group 162199">
          <g id="Group_162188" data-name="Group 162188" transform="translate(0 15.349)">
            <g id="Group_162181" data-name="Group 162181" transform="translate(0 12.325)">
              <path id="Path_2592" data-name="Path 2592" d="M198.732,430.432c0,.041,0,.081,0,.123a6.007,6.007,0,0,1-2.3,4.342,13.55,13.55,0,0,1-1.215.98,24.732,24.732,0,0,1-4.6,2.529c-.392.17-.8.337-1.215.5-1.4.553-2.943,1.07-4.6,1.548q-.6.172-1.215.338-2.179.584-4.6,1.076-.6.123-1.214.238-2.217.42-4.6.758c-.4.058-.806.112-1.215.167q-2.241.29-4.6.508-.605.055-1.215.1-2.256.185-4.6.294-.6.028-1.215.052-2.266.085-4.6.1c-.27,0-.542,0-.814,0h-.4q-2.332-.007-4.6-.086-.61-.022-1.215-.049-1.725-.075-3.408-.192-.6-.042-1.193-.088c-.407-.032-.811-.066-1.215-.1q-2.357-.207-4.6-.491-.613-.078-1.215-.162-1.429-.2-2.8-.423-.914-.152-1.8-.315c-.408-.077-.815-.154-1.215-.233q-2.414-.478-4.6-1.05c-.287-.074-.571-.151-.854-.228l-.36-.1c-.658-.183-1.3-.376-1.919-.572q-1.409-.447-2.682-.932-.625-.24-1.215-.486a27.9,27.9,0,0,1-4.08-2.076c-.179-.113-.353-.227-.52-.341-.211-.142-.415-.286-.608-.43-.212-.158-.413-.318-.607-.479-1.755-1.463-2.714-3.048-2.714-4.7,0-.117.006-.232.017-.348l0-9.355,2.693,0,1.215,0,4.6-.007,1.215,0,3.591-.006h1.01l1.214,0,4.6-.007h1.215l4.6-.007,1.215,0,4.6-.007,1.215,0,4.6-.006,1.215,0,4.6-.006,1.215,0,4.6-.007h1.215l4.6-.008h1.215l4.6-.008h1.215l4.6-.007,1.214,0,4.6-.007,1.215,0h.3l4.3-.007h1.215l4.6-.008h1.215l2.287,0,.017,9.709Z" transform="translate(-111.081 -420.723)" fill="#009ef3"/>
              <g id="Group_162180" data-name="Group 162180" transform="translate(2.714 0.003)">
                <g id="Group_162179" data-name="Group 162179">
                  <path id="Path_2593" data-name="Path 2593" d="M114.738,420.834V436.15c-.211-.142-.415-.286-.608-.43-.212-.158-.413-.318-.607-.479V420.836Z" transform="translate(-113.523 -420.714)" fill="#007ce6"/>
                  <path id="Path_2594" data-name="Path 2594" d="M119.97,420.826v18.228q-.625-.24-1.215-.486V420.828Z" transform="translate(-112.94 -420.715)" fill="#007ce6"/>
                  <path id="Path_2595" data-name="Path 2595" d="M125.2,420.818v20.071c-.287-.074-.571-.151-.854-.228l-.36-.1V420.82Z" transform="translate(-112.357 -420.716)" fill="#007ce6"/>
                  <path id="Path_2596" data-name="Path 2596" d="M130.436,420.811v21.363c-.408-.077-.815-.154-1.215-.233V420.812Z" transform="translate(-111.774 -420.717)" fill="#007ce6"/>
                  <path id="Path_2597" data-name="Path 2597" d="M135.669,420.8v22.272q-.613-.078-1.215-.162V420.805Z" transform="translate(-111.191 -420.717)" fill="#007ce6"/>
                  <path id="Path_2598" data-name="Path 2598" d="M140.9,420.8v22.874c-.407-.032-.811-.066-1.215-.1V420.8Z" transform="translate(-110.608 -420.718)" fill="#007ce6"/>
                  <path id="Path_2599" data-name="Path 2599" d="M146.133,420.787V444q-.61-.022-1.215-.049V420.79Z" transform="translate(-110.025 -420.719)" fill="#007ce6"/>
                  <path id="Path_2600" data-name="Path 2600" d="M151.367,420.78v23.3c-.27,0-.542,0-.814,0h-.4v-23.3Z" transform="translate(-109.442 -420.72)" fill="#007ce6"/>
                  <path id="Path_2601" data-name="Path 2601" d="M156.6,420.773v23.16q-.6.028-1.215.052V420.774Z" transform="translate(-108.859 -420.721)" fill="#007ce6"/>
                  <path id="Path_2602" data-name="Path 2602" d="M161.832,420.765v22.77q-.605.055-1.215.1V420.766Z" transform="translate(-108.276 -420.722)" fill="#007ce6"/>
                  <path id="Path_2603" data-name="Path 2603" d="M167.064,420.757v22.1c-.4.058-.806.112-1.215.167v-22.27Z" transform="translate(-107.693 -420.723)" fill="#007ce6"/>
                  <path id="Path_2604" data-name="Path 2604" d="M172.3,420.749v21.117q-.6.123-1.214.238V420.751Z" transform="translate(-107.11 -420.723)" fill="#007ce6"/>
                  <path id="Path_2605" data-name="Path 2605" d="M177.53,420.741v19.712q-.6.172-1.215.338V420.743Z" transform="translate(-106.527 -420.724)" fill="#007ce6"/>
                  <path id="Path_2606" data-name="Path 2606" d="M182.763,420.734v17.672c-.392.17-.8.337-1.215.5V420.735Z" transform="translate(-105.943 -420.725)" fill="#007ce6"/>
                  <path id="Path_2607" data-name="Path 2607" d="M187.995,420.726V434.9a13.55,13.55,0,0,1-1.215.98V420.727Z" transform="translate(-105.36 -420.726)" fill="#007ce6"/>
                </g>
              </g>
            </g>
            <g id="Group_162187" data-name="Group 162187" transform="translate(0.016)">
              <g id="Group_162186" data-name="Group 162186">
                <path id="Path_2608" data-name="Path 2608" d="M198.722,422.076c0,6.872-19.612,12.443-43.813,12.443-3.306,0-6.527-.1-9.624-.3-3.894-.248-7.593-.644-11.019-1.164-3.059-.465-5.9-1.03-8.47-1.679-.785-.2-1.546-.4-2.278-.619a36.616,36.616,0,0,1-7.976-3.213c-.4-.232-.778-.468-1.127-.708-2.139-1.466-3.32-3.074-3.32-4.759a2.931,2.931,0,0,1,.036-.461c.849-6.657,20.126-11.981,43.778-11.981a144.694,144.694,0,0,1,16.456.908q1.472.168,2.89.368a88.754,88.754,0,0,1,11.152,2.234q1.08.3,2.087.615a36.356,36.356,0,0,1,6.138,2.493,13.046,13.046,0,0,1,3.94,2.983,4.71,4.71,0,0,1,1.116,2.381A2.932,2.932,0,0,1,198.722,422.076Z" transform="translate(-111.095 -409.634)" fill="#61c2ff"/>
                <path id="Path_2609" data-name="Path 2609" d="M195.249,418.571l-52.287,14.984c-3.894-.248-7.593-.644-11.019-1.164l59.366-16.8A13.046,13.046,0,0,1,195.249,418.571Z" transform="translate(-108.772 -408.971)" fill="#fff" opacity="0.3"/>
                <path id="Path_2610" data-name="Path 2610" d="M173.921,410.819l-58.712,16.634c-.4-.232-.778-.468-1.127-.708l56.949-16.293Q172.5,410.619,173.921,410.819Z" transform="translate(-110.762 -409.543)" fill="#fff" opacity="0.3"/>
                <path id="Path_2611" data-name="Path 2611" d="M186.248,413.407l-61.7,17.617c-.785-.2-1.546-.4-2.278-.619l61.888-17.613Q185.241,413.089,186.248,413.407Z" transform="translate(-109.85 -409.282)" fill="#fff" opacity="0.3"/>
                <path id="Path_2612" data-name="Path 2612" d="M189.045,421.827a3.51,3.51,0,0,1-.034.457c-.845,5.273-16.211,9.488-34.984,9.488s-34.138-4.216-34.983-9.488a3.51,3.51,0,0,1-.034-.457c0-5.484,15.709-9.945,35.018-9.945S189.045,416.343,189.045,421.827Z" transform="translate(-110.213 -409.383)" fill="#007ce6"/>
                <path id="Path_2613" data-name="Path 2613" d="M189.007,422.192c-.845,5.273-16.211,9.488-34.984,9.488-.42,0-.835,0-1.25-.007a114.449,114.449,0,0,1-11.882-.719,78.6,78.6,0,0,1-10.017-1.764q-1.12-.282-2.159-.589a24.756,24.756,0,0,1-7.324-3.262,8.425,8.425,0,0,1-1.065-.9,4.182,4.182,0,0,1-1.285-2.248c.845-5.274,16.211-9.49,34.983-9.49,2.375,0,4.7.068,6.943.2,1.144.066,2.273.147,3.377.245a85.331,85.331,0,0,1,12.167,1.886q1.144.272,2.208.575a30.1,30.1,0,0,1,6.776,2.683,7.477,7.477,0,0,1,3.294,3.159A3.03,3.03,0,0,1,189.007,422.192Z" transform="translate(-110.21 -409.292)" fill="#009ef3"/>
                <path id="Path_2614" data-name="Path 2614" d="M186.6,420.886l-36.016,10.228a114.441,114.441,0,0,1-11.882-.719l44.6-12.668A7.476,7.476,0,0,1,186.6,420.886Z" transform="translate(-108.019 -408.732)" fill="#fff" opacity="0.2"/>
                <path id="Path_2615" data-name="Path 2615" d="M164.214,413.123l-42.953,12.2a8.425,8.425,0,0,1-1.065-.9l40.641-11.542C161.981,412.945,163.11,413.026,164.214,413.123Z" transform="translate(-110.081 -409.272)" fill="#fff" opacity="0.2"/>
                <path id="Path_2616" data-name="Path 2616" d="M177.748,415.371,129.9,428.958q-1.12-.282-2.159-.589l47.8-13.573Q176.683,415.068,177.748,415.371Z" transform="translate(-109.24 -409.059)" fill="#fff" opacity="0.2"/>
                <g id="Group_162185" data-name="Group 162185" transform="translate(27.608 5.196)">
                  <g id="Group_162183" data-name="Group 162183" transform="translate(0.215 0.549)">
                    <g id="Group_162182" data-name="Group 162182">
                      <path id="Path_2617" data-name="Path 2617" d="M156.989,427.143V428.8H149.6v-1.578a96.757,96.757,0,0,1-13.47-1.041l3.983-2.561a78.889,78.889,0,0,0,12.108.952c3.512,0,4.77-.208,4.77-.566,0-1.309-20.285-.252-20.285-4.138,0-1.682,4.3-3.1,12.894-3.439V414.8h7.391V416.4a85.677,85.677,0,0,1,10.64.864l-3.721,2.545a71.911,71.911,0,0,0-10.221-.774c-3.617,0-4.77.3-4.77.655,0,1.25,20.285.209,20.285,4.049C169.2,425.343,165.114,426.742,156.989,427.143Z" transform="translate(-136.128 -414.803)" fill="#007ce6"/>
                    </g>
                  </g>
                  <g id="Group_162184" data-name="Group 162184">
                    <path id="Path_2618" data-name="Path 2618" d="M156.8,426.649V428.3h-7.39v-1.577a96.713,96.713,0,0,1-13.47-1.043l3.983-2.561a78.719,78.719,0,0,0,12.108.954c3.511,0,4.769-.209,4.769-.566,0-1.31-20.285-.253-20.285-4.139,0-1.682,4.3-3.1,12.895-3.438v-1.623h7.39V415.9a85.275,85.275,0,0,1,10.641.864l-3.721,2.545a71.777,71.777,0,0,0-10.222-.775c-3.617,0-4.769.3-4.769.656,0,1.25,20.285.208,20.285,4.049C169.009,424.847,164.92,426.247,156.8,426.649Z" transform="translate(-135.935 -414.309)" fill="#61c2ff"/>
                  </g>
                </g>
              </g>
            </g>
          </g>
          <g id="Group_162198" data-name="Group 162198" transform="translate(2.754)">
            <g id="Group_162191" data-name="Group 162191" transform="translate(0 12.325)">
              <path id="Path_2619" data-name="Path 2619" d="M201.209,416.621c0,.042,0,.082,0,.124a6,6,0,0,1-2.3,4.341,13.346,13.346,0,0,1-1.214.981,24.779,24.779,0,0,1-4.6,2.529q-.588.255-1.215.5c-1.4.553-2.942,1.07-4.6,1.548-.4.114-.8.228-1.215.337-1.453.39-2.991.749-4.6,1.077q-.6.123-1.215.238-2.216.42-4.6.758c-.4.058-.807.112-1.215.167q-2.241.29-4.6.508c-.4.036-.807.071-1.215.1q-2.254.185-4.6.294-.605.028-1.215.052-2.267.085-4.6.1l-.812,0h-.4q-2.332,0-4.6-.086c-.407-.013-.811-.03-1.215-.048q-1.725-.075-3.409-.192c-.4-.028-.8-.057-1.193-.089s-.811-.066-1.215-.1q-2.356-.207-4.6-.492-.614-.077-1.215-.161-1.427-.2-2.8-.423-.912-.152-1.8-.315-.614-.115-1.215-.233-2.414-.478-4.6-1.05c-.288-.074-.572-.151-.854-.228l-.361-.1c-.658-.184-1.3-.376-1.918-.572q-1.409-.448-2.683-.932-.624-.24-1.214-.486a27.8,27.8,0,0,1-4.081-2.077c-.178-.112-.352-.226-.52-.34q-.317-.213-.607-.431-.318-.237-.608-.479c-1.755-1.462-2.713-3.046-2.713-4.7,0-.117.006-.232.016-.348l0-9.356,2.693,0,1.215,0,4.6-.007,1.214,0,3.591-.006h1.01l1.215,0,4.6-.007h1.215l4.6-.008h1.215l4.6-.008h1.215l4.6-.006,1.215,0,4.6-.006,1.214,0,4.6-.006,1.215,0,4.6-.007h1.215l4.6-.008h1.215l4.6-.007,1.215,0,4.6-.007,1.215,0h.3l4.3-.007h1.215l4.6-.008h1.214l2.288,0,.016,9.708Z" transform="translate(-113.559 -406.913)" fill="#009ef3"/>
              <g id="Group_162190" data-name="Group 162190" transform="translate(2.713 0.003)">
                <g id="Group_162189" data-name="Group 162189">
                  <path id="Path_2620" data-name="Path 2620" d="M117.215,407.024v15.317q-.317-.213-.607-.431-.318-.237-.608-.479v-14.4Z" transform="translate(-116 -406.904)" fill="#007ce6"/>
                  <path id="Path_2621" data-name="Path 2621" d="M122.447,407.016v18.228q-.624-.24-1.214-.486V407.018Z" transform="translate(-115.417 -406.905)" fill="#007ce6"/>
                  <path id="Path_2622" data-name="Path 2622" d="M127.68,407.008v20.071c-.288-.074-.572-.151-.854-.228l-.361-.1V407.01Z" transform="translate(-114.834 -406.906)" fill="#007ce6"/>
                  <path id="Path_2623" data-name="Path 2623" d="M132.914,407v21.363q-.614-.115-1.215-.233V407Z" transform="translate(-114.251 -406.906)" fill="#007ce6"/>
                  <path id="Path_2624" data-name="Path 2624" d="M138.146,406.993v22.271q-.614-.077-1.215-.161V406.994Z" transform="translate(-113.668 -406.907)" fill="#007ce6"/>
                  <path id="Path_2625" data-name="Path 2625" d="M143.378,406.985v22.873q-.61-.047-1.215-.1V406.986Z" transform="translate(-113.085 -406.908)" fill="#007ce6"/>
                  <path id="Path_2626" data-name="Path 2626" d="M148.611,406.977v23.211c-.407-.013-.811-.03-1.215-.048V406.98Z" transform="translate(-112.502 -406.909)" fill="#007ce6"/>
                  <path id="Path_2627" data-name="Path 2627" d="M153.844,406.969v23.3l-.812,0h-.4v-23.3Z" transform="translate(-111.919 -406.91)" fill="#007ce6"/>
                  <path id="Path_2628" data-name="Path 2628" d="M159.077,406.962v23.161q-.605.028-1.215.052V406.964Z" transform="translate(-111.336 -406.911)" fill="#007ce6"/>
                  <path id="Path_2629" data-name="Path 2629" d="M164.309,406.955v22.77c-.4.036-.807.071-1.215.1V406.956Z" transform="translate(-110.753 -406.912)" fill="#007ce6"/>
                  <path id="Path_2630" data-name="Path 2630" d="M169.542,406.947v22.1c-.4.058-.807.112-1.215.167v-22.27Z" transform="translate(-110.17 -406.913)" fill="#007ce6"/>
                  <path id="Path_2631" data-name="Path 2631" d="M174.774,406.939v21.117q-.6.123-1.215.238V406.941Z" transform="translate(-109.587 -406.913)" fill="#007ce6"/>
                  <path id="Path_2632" data-name="Path 2632" d="M180.008,406.931v19.712c-.4.114-.8.228-1.215.337V406.933Z" transform="translate(-109.003 -406.914)" fill="#007ce6"/>
                  <path id="Path_2633" data-name="Path 2633" d="M185.24,406.924V424.6q-.588.255-1.215.5V406.925Z" transform="translate(-108.42 -406.915)" fill="#007ce6"/>
                  <path id="Path_2634" data-name="Path 2634" d="M190.472,406.916v14.171a13.346,13.346,0,0,1-1.214.981V406.917Z" transform="translate(-107.837 -406.916)" fill="#007ce6"/>
                </g>
              </g>
            </g>
            <g id="Group_162197" data-name="Group 162197" transform="translate(0.016)">
              <g id="Group_162196" data-name="Group 162196">
                <path id="Path_2635" data-name="Path 2635" d="M201.2,408.266c0,6.872-19.612,12.443-43.813,12.443-3.305,0-6.526-.1-9.624-.3-3.893-.247-7.592-.642-11.019-1.164-3.059-.465-5.9-1.029-8.469-1.679q-1.179-.3-2.278-.619a36.619,36.619,0,0,1-7.976-3.212c-.4-.232-.779-.469-1.127-.709-2.139-1.465-3.32-3.073-3.32-4.758a2.931,2.931,0,0,1,.036-.461c.849-6.659,20.125-11.981,43.777-11.981a144.95,144.95,0,0,1,16.456.907q1.472.17,2.89.369a88.583,88.583,0,0,1,11.153,2.234q1.08.3,2.086.615a36.319,36.319,0,0,1,6.14,2.493,13.04,13.04,0,0,1,3.939,2.983,4.692,4.692,0,0,1,1.116,2.381A2.8,2.8,0,0,1,201.2,408.266Z" transform="translate(-113.573 -395.824)" fill="#61c2ff"/>
                <path id="Path_2636" data-name="Path 2636" d="M197.726,404.761l-52.287,14.983c-3.893-.247-7.592-.642-11.019-1.164l59.367-16.8A13.04,13.04,0,0,1,197.726,404.761Z" transform="translate(-111.25 -395.161)" fill="#fff" opacity="0.3"/>
                <path id="Path_2637" data-name="Path 2637" d="M176.4,397.009l-58.711,16.634c-.4-.232-.779-.469-1.127-.709l56.948-16.293Q174.98,396.81,176.4,397.009Z" transform="translate(-113.24 -395.733)" fill="#fff" opacity="0.3"/>
                <path id="Path_2638" data-name="Path 2638" d="M188.725,399.6l-61.7,17.616q-1.179-.3-2.278-.619l61.889-17.612Q187.719,399.279,188.725,399.6Z" transform="translate(-112.328 -395.472)" fill="#fff" opacity="0.3"/>
                <path id="Path_2639" data-name="Path 2639" d="M191.523,408.017a3.679,3.679,0,0,1-.034.456c-.846,5.273-16.212,9.489-34.984,9.489s-34.138-4.217-34.984-9.489a3.677,3.677,0,0,1-.033-.456c0-5.485,15.708-9.945,35.018-9.945S191.523,402.532,191.523,408.017Z" transform="translate(-112.691 -395.573)" fill="#007ce6"/>
                <path id="Path_2640" data-name="Path 2640" d="M191.486,408.381c-.846,5.273-16.212,9.489-34.984,9.489-.42,0-.836,0-1.251-.008a114.167,114.167,0,0,1-11.882-.718,78.748,78.748,0,0,1-10.016-1.764c-.748-.188-1.466-.383-2.159-.589a24.77,24.77,0,0,1-7.324-3.262,8.516,8.516,0,0,1-1.066-.9,4.188,4.188,0,0,1-1.285-2.25c.846-5.273,16.212-9.489,34.984-9.489,2.375,0,4.7.068,6.943.2,1.144.066,2.272.147,3.377.245a85.289,85.289,0,0,1,12.166,1.886c.762.181,1.5.372,2.208.574a30.156,30.156,0,0,1,6.777,2.684,7.483,7.483,0,0,1,3.293,3.158A3.012,3.012,0,0,1,191.486,408.381Z" transform="translate(-112.688 -395.482)" fill="#009ef3"/>
                <path id="Path_2641" data-name="Path 2641" d="M189.075,407.075,153.059,417.3a114.167,114.167,0,0,1-11.882-.718l44.6-12.668A7.483,7.483,0,0,1,189.075,407.075Z" transform="translate(-110.497 -394.922)" fill="#fff" opacity="0.2"/>
                <path id="Path_2642" data-name="Path 2642" d="M166.692,399.313l-42.953,12.2a8.516,8.516,0,0,1-1.066-.9l40.643-11.542C164.459,399.135,165.587,399.216,166.692,399.313Z" transform="translate(-112.559 -395.462)" fill="#fff" opacity="0.2"/>
                <path id="Path_2643" data-name="Path 2643" d="M180.225,401.559l-47.843,13.588c-.748-.188-1.466-.383-2.159-.589l47.795-13.573C178.779,401.167,179.517,401.358,180.225,401.559Z" transform="translate(-111.718 -395.249)" fill="#fff" opacity="0.2"/>
                <g id="Group_162195" data-name="Group 162195" transform="translate(27.607 5.195)">
                  <g id="Group_162193" data-name="Group 162193" transform="translate(0.216 0.55)">
                    <g id="Group_162192" data-name="Group 162192">
                      <path id="Path_2644" data-name="Path 2644" d="M159.466,413.333v1.653h-7.39v-1.578a96.742,96.742,0,0,1-13.47-1.041l3.983-2.561a78.866,78.866,0,0,0,12.108.952c3.511,0,4.769-.208,4.769-.566,0-1.309-20.285-.253-20.285-4.138,0-1.683,4.3-3.1,12.895-3.439v-1.623h7.39v1.593a85.485,85.485,0,0,1,10.641.864l-3.721,2.545a71.777,71.777,0,0,0-10.222-.774c-3.617,0-4.769.3-4.769.655,0,1.25,20.285.209,20.285,4.049C171.68,411.531,167.591,412.932,159.466,413.333Z" transform="translate(-138.606 -400.993)" fill="#007ce6"/>
                    </g>
                  </g>
                  <g id="Group_162194" data-name="Group 162194">
                    <path id="Path_2645" data-name="Path 2645" d="M159.273,412.838v1.653h-7.391v-1.578a96.752,96.752,0,0,1-13.47-1.041l3.983-2.561a78.747,78.747,0,0,0,12.108.952c3.512,0,4.77-.208,4.77-.566,0-1.309-20.285-.252-20.285-4.138,0-1.682,4.3-3.1,12.894-3.439V400.5h7.391v1.593a85.677,85.677,0,0,1,10.64.864l-3.721,2.546a71.762,71.762,0,0,0-10.221-.775c-3.617,0-4.77.3-4.77.655,0,1.25,20.285.209,20.285,4.049C171.486,411.038,167.4,412.437,159.273,412.838Z" transform="translate(-138.412 -400.498)" fill="#61c2ff"/>
                  </g>
                </g>
              </g>
            </g>
          </g>
        </g>
      </g>
    </g>
    <g id="Group_162206" data-name="Group 162206" transform="translate(354.058 231.002)">
      <g id="Group_162202" data-name="Group 162202">
        <path id="Path_2646" data-name="Path 2646" d="M364.082,219.594v32.985a3.81,3.81,0,0,1-3.806,3.806H327.293a7.225,7.225,0,0,1-6.177-4.379,2.482,2.482,0,0,1-.17-.391c-.064-.2-.13-.391-.2-.6,0-.027-.012-.04-.012-.066s-.013-.013-.013-.026v-.066l-.066-26.025V217.21a3.814,3.814,0,0,1,3.4-3.792c.13,0,.273-.013.4-.013l33.648.13a2.637,2.637,0,0,1,.457.039h.012C361.971,213.952,364.082,217.588,364.082,219.594Z" transform="translate(-320.659 -213.405)" fill="#005ec9"/>
      </g>
      <g id="Group_162203" data-name="Group 162203">
        <path id="Path_2647" data-name="Path 2647" d="M361.254,217.21v32.97a3.8,3.8,0,0,1-3.805,3.806H324.465a3.807,3.807,0,0,1-3.349-1.981,2.482,2.482,0,0,1-.17-.391c-.064-.2-.13-.391-.2-.6,0-.027-.012-.04-.012-.066s-.013-.066-.013-.091a3.878,3.878,0,0,1-.066-.678V217.21a3.814,3.814,0,0,1,3.4-3.792c.13,0,.273-.013.4-.013h32.984a3.559,3.559,0,0,1,1.121.169h.012A3.794,3.794,0,0,1,361.254,217.21Z" transform="translate(-320.659 -213.405)" fill="#007ce6"/>
      </g>
      <g id="Group_162205" data-name="Group 162205" transform="translate(10.932 6.886)">
        <g id="Group_162204" data-name="Group 162204">
          <path id="Path_2648" data-name="Path 2648" d="M342.268,244.191l-.027,3.289-4.176-.034.026-3.14a17.442,17.442,0,0,1-7.6-2.135l2.293-5.077a14.226,14.226,0,0,0,6.827,1.952c1.984.016,2.7-.393,2.7-1.1.021-2.607-11.459-.6-11.4-8.328.028-3.348,2.48-6.142,7.343-6.784l.026-3.229,4.177.034-.026,3.17a15.464,15.464,0,0,1,6,1.766L346.3,229.62a12.808,12.808,0,0,0-5.764-1.588c-2.044-.017-2.7.571-2.706,1.281-.02,2.488,11.46.508,11.4,8.15C349.2,240.664,346.866,243.429,342.268,244.191Z" transform="translate(-330.495 -219.601)" fill="#fff"/>
        </g>
      </g>
    </g>
    <g id="Group_162211" data-name="Group 162211" transform="translate(340.626 379.8)">
      <g id="Group_162210" data-name="Group 162210" transform="translate(0 0)">
        <path id="Path_2649" data-name="Path 2649" d="M384.362,364.337l-70.288-.177v87.3l70.288.228Z" transform="translate(-307.96 -345.405)" fill="#005ec9"/>
        <g id="Group_162207" data-name="Group 162207" transform="translate(22.867)">
          <path id="Path_2650" data-name="Path 2650" d="M330.423,377.027a1.327,1.327,0,0,0,1.379-1.2c.418-4.392,2.334-19.082,9.555-24.39a9.276,9.276,0,0,1,6.625-1.816c12.678,1.19,14.605,21.071,14.893,26.323a1.329,1.329,0,0,0,1.336,1.256h0a1.33,1.33,0,0,0,1.325-1.4c-.288-5.763-2.362-27.054-17.269-28.454a12.22,12.22,0,0,0-8.639,2.352c-8.031,5.9-10.037,21.143-10.474,25.874a1.331,1.331,0,0,0,1.269,1.453Z" transform="translate(-329.148 -347.285)" fill="#009ef3"/>
        </g>
        <path id="Path_2651" data-name="Path 2651" d="M378.861,364.337l-70.288-.177v87.3l70.288.228Z" transform="translate(-308.573 -345.405)" fill="#007ce6"/>
        <g id="Group_162208" data-name="Group 162208" transform="translate(15.89 26.779)">
          <path id="Path_2652" data-name="Path 2652" d="M327.914,373.9a2.522,2.522,0,1,1-2.522-2.522A2.522,2.522,0,0,1,327.914,373.9Z" transform="translate(-322.87 -371.38)" fill="#005ec9"/>
          <path id="Path_2653" data-name="Path 2653" d="M358.376,373.9a2.522,2.522,0,1,1-2.523-2.522A2.522,2.522,0,0,1,358.376,373.9Z" transform="translate(-319.476 -371.38)" fill="#005ec9"/>
        </g>
        <g id="Group_162209" data-name="Group 162209" transform="translate(17.238 0.201)">
          <path id="Path_2654" data-name="Path 2654" d="M325.357,377.208a1.33,1.33,0,0,0,1.38-1.2c.418-4.392,2.334-19.082,9.555-24.389a9.267,9.267,0,0,1,6.625-1.816c12.679,1.189,14.606,21.075,14.893,26.324a1.326,1.326,0,0,0,1.335,1.254h0a1.329,1.329,0,0,0,1.323-1.395c-.288-5.759-2.36-27.056-17.269-28.455a12.226,12.226,0,0,0-8.64,2.351c-8.031,5.9-10.037,21.144-10.473,25.874a1.33,1.33,0,0,0,1.268,1.454Z" transform="translate(-324.083 -347.466)" fill="#61b3ff"/>
        </g>
      </g>
    </g>
  </g>
</svg>
