<svg xmlns="http://www.w3.org/2000/svg" width="180.352" height="185.253" viewBox="0 0 180.352 185.253">
  <g id="Setting_2" data-name="Setting 2" transform="translate(0 0)" style="mix-blend-mode: normal;isolation: isolate">
    <path id="Path_2656" data-name="Path 2656" d="M111.671,1.32l1.124,5.8,4.234,21.155A71.6,71.6,0,0,1,135.5,39.185l20.716-7.133,5.57-1.775L181.815,65l-20.26,17.817.228,2a53.734,53.734,0,0,1,1.107,9.136,53.585,53.585,0,0,1-1.107,9.12l-.228,2,20.26,17.817-20.032,34.738-5.57-1.775L135.5,148.724a71.6,71.6,0,0,1-18.468,10.912l-5.358,26.937H71.607l-5.358-26.937a71.872,71.872,0,0,1-18.468-10.912l-20.716,7.133-5.57,1.775L1.463,122.895l20.26-17.817-.228-2a55.329,55.329,0,0,1-1.107-9.12,55.481,55.481,0,0,1,1.107-9.136l.228-2L1.463,65,21.495,30.276l5.57,1.775,20.716,7.133A71.872,71.872,0,0,1,66.249,28.273L71.607,1.32ZM100.108,15.57H83.17L78.724,38.289l-4.006,1.335A55.332,55.332,0,0,0,53.122,52.1L50,54.982,27.96,47.409,19.492,61.888l14.25,12.687,3.339,2.671L35.973,81.48a58.859,58.859,0,0,0,0,24.934l.9,4.234L19.492,126.022l8.469,14.462L50,132.911l3.127,2.9a55.533,55.533,0,0,0,21.6,12.475l4.006,1.335,4.446,22.7h16.938l4.446-22.7,4.006-1.335a55.417,55.417,0,0,0,21.6-12.475l3.127-2.9,22.035,7.573,8.469-14.462-14.25-12.7-3.339-2.671,1.107-4.234a58.859,58.859,0,0,0,0-24.934L146.2,77.245l3.339-2.671,14.25-12.687-8.469-14.478-22.035,7.573L130.155,52.1a55.216,55.216,0,0,0-21.6-12.475l-4.006-1.335-.9-4.234ZM91.639,58.321a34.845,34.845,0,0,1,17.817,4.788,35.578,35.578,0,0,1,13.029,13.029,35.543,35.543,0,0,1,0,35.634,35.535,35.535,0,0,1-13.029,13.013,35.543,35.543,0,0,1-35.634,0,35.657,35.657,0,0,1-13.029-13.013,35.648,35.648,0,0,1,0-35.634A35.7,35.7,0,0,1,73.822,63.109,34.888,34.888,0,0,1,91.639,58.321Zm0,14.25A21.269,21.269,0,0,0,70.272,93.955a21.242,21.242,0,0,0,21.367,21.367,21.269,21.269,0,0,0,21.384-21.367A21.3,21.3,0,0,0,91.639,72.571Z" transform="translate(-1.463 -1.32)" fill="#333"/>
  </g>
</svg>
