<svg id="Group_2859" data-name="Group 2859" xmlns="http://www.w3.org/2000/svg" width="62.604" height="107.719" viewBox="0 0 62.604 107.719">
  <g id="Group_493" data-name="Group 493" transform="translate(6.312 89.323)">
    <path id="Path_1208" data-name="Path 1208" d="M2545.6,1184.041a9.2,9.2,0,1,1,9.2-9.2A9.209,9.209,0,0,1,2545.6,1184.041Zm0-15.509a6.312,6.312,0,1,0,6.312,6.312A6.318,6.318,0,0,0,2545.6,1168.531Z" transform="translate(-2536.399 -1165.645)" fill="#ef4923"/>
  </g>
  <g id="Group_494" data-name="Group 494" transform="translate(0 38.836)">
    <path id="Path_1209" data-name="Path 1209" d="M2540.933,1146.729a9.2,9.2,0,1,1,9.2-9.2A9.208,9.208,0,0,1,2540.933,1146.729Zm0-15.509a6.312,6.312,0,1,0,6.312,6.312A6.318,6.318,0,0,0,2540.933,1131.219Z" transform="translate(-2531.734 -1128.333)" fill="#f3c04c"/>
  </g>
  <g id="Group_502" data-name="Group 502" transform="translate(41.856 57.231)">
    <g id="Group_497" data-name="Group 497" transform="translate(8.932)">
      <g id="Group_495" data-name="Group 495">
        <path id="Path_1210" data-name="Path 1210" d="M2570.711,1145.778a1.443,1.443,0,0,1-1.443-1.442v-6.364a1.442,1.442,0,0,1,2.885,0v6.364A1.443,1.443,0,0,1,2570.711,1145.778Z" transform="translate(-2569.268 -1136.529)" fill="#f3c04c"/>
      </g>
      <g id="Group_496" data-name="Group 496" transform="translate(0 11.135)">
        <path id="Path_1211" data-name="Path 1211" d="M2570.711,1154.007a1.443,1.443,0,0,1-1.443-1.444V1146.2a1.442,1.442,0,0,1,2.885,0v6.363A1.443,1.443,0,0,1,2570.711,1154.007Z" transform="translate(-2569.268 -1144.758)" fill="#f3c04c"/>
      </g>
    </g>
    <g id="Group_501" data-name="Group 501" transform="translate(0 8.749)">
      <g id="Group_499" data-name="Group 499" transform="translate(12.147)">
        <g id="Group_498" data-name="Group 498">
          <path id="Path_1212" data-name="Path 1212" d="M2578.8,1145.88h-5.715a1.442,1.442,0,1,1,0-2.885h5.715a1.442,1.442,0,1,1,0,2.885Z" transform="translate(-2571.645 -1142.995)" fill="#f3c04c"/>
        </g>
      </g>
      <g id="Group_500" data-name="Group 500">
        <path id="Path_1213" data-name="Path 1213" d="M2569.827,1145.88h-5.716a1.442,1.442,0,1,1,0-2.885h5.716a1.442,1.442,0,0,1,0,2.885Z" transform="translate(-2562.667 -1142.995)" fill="#f3c04c"/>
      </g>
    </g>
  </g>
  <g id="Group_514" data-name="Group 514" transform="translate(35.783)">
    <g id="Group_513" data-name="Group 513">
      <g id="Group_507" data-name="Group 507" transform="translate(8.931)">
        <g id="Group_504" data-name="Group 504">
          <g id="Group_503" data-name="Group 503">
            <path id="Path_1214" data-name="Path 1214" d="M2566.223,1108.881a1.444,1.444,0,0,1-1.444-1.444v-6.362a1.443,1.443,0,0,1,2.886,0v6.362A1.444,1.444,0,0,1,2566.223,1108.881Z" transform="translate(-2564.779 -1099.632)" fill="#ef4923"/>
          </g>
        </g>
        <g id="Group_506" data-name="Group 506" transform="translate(0 11.135)">
          <g id="Group_505" data-name="Group 505">
            <path id="Path_1215" data-name="Path 1215" d="M2566.223,1117.108a1.443,1.443,0,0,1-1.444-1.442V1109.3a1.443,1.443,0,0,1,2.886,0v6.362A1.442,1.442,0,0,1,2566.223,1117.108Z" transform="translate(-2564.779 -1107.861)" fill="#ef4923"/>
          </g>
        </g>
      </g>
      <g id="Group_512" data-name="Group 512" transform="translate(0 8.748)">
        <g id="Group_509" data-name="Group 509" transform="translate(12.146)">
          <g id="Group_508" data-name="Group 508">
            <path id="Path_1216" data-name="Path 1216" d="M2574.314,1108.983H2568.6a1.443,1.443,0,1,1,0-2.886h5.715a1.443,1.443,0,0,1,0,2.886Z" transform="translate(-2567.155 -1106.097)" fill="#ef4923"/>
          </g>
        </g>
        <g id="Group_511" data-name="Group 511">
          <g id="Group_510" data-name="Group 510">
            <path id="Path_1217" data-name="Path 1217" d="M2565.337,1108.983h-5.715a1.443,1.443,0,0,1,0-2.886h5.715a1.443,1.443,0,1,1,0,2.886Z" transform="translate(-2558.179 -1106.097)" fill="#ef4923"/>
          </g>
        </g>
      </g>
    </g>
  </g>
</svg>
