<svg id="Group_162037" data-name="Group 162037" xmlns="http://www.w3.org/2000/svg" width="62.604" height="107.719" viewBox="0 0 62.604 107.719">
  <g id="Group_493" data-name="Group 493" transform="translate(6.312)">
    <path id="Path_1208" data-name="Path 1208" d="M2545.6,1165.645a9.2,9.2,0,1,0,9.2,9.2A9.209,9.209,0,0,0,2545.6,1165.645Zm0,15.509a6.312,6.312,0,1,1,6.312-6.312A6.318,6.318,0,0,1,2545.6,1181.155Z" transform="translate(-2536.399 -1165.645)" fill="#ef4923"/>
  </g>
  <g id="Group_494" data-name="Group 494" transform="translate(0 50.487)">
    <path id="Path_1209" data-name="Path 1209" d="M2540.933,1128.333a9.2,9.2,0,1,0,9.2,9.2A9.208,9.208,0,0,0,2540.933,1128.333Zm0,15.509a6.312,6.312,0,1,1,6.312-6.312A6.318,6.318,0,0,1,2540.933,1143.842Z" transform="translate(-2531.734 -1128.333)" fill="#f3c04c"/>
  </g>
  <g id="Group_502" data-name="Group 502" transform="translate(41.856 30.104)">
    <g id="Group_497" data-name="Group 497" transform="translate(8.932)">
      <g id="Group_495" data-name="Group 495" transform="translate(0 11.135)">
        <path id="Path_1210" data-name="Path 1210" d="M2570.711,1136.529a1.443,1.443,0,0,0-1.443,1.442v6.364a1.442,1.442,0,0,0,2.885,0v-6.364A1.443,1.443,0,0,0,2570.711,1136.529Z" transform="translate(-2569.268 -1136.529)" fill="#f3c04c"/>
      </g>
      <g id="Group_496" data-name="Group 496" transform="translate(0 0)">
        <path id="Path_1211" data-name="Path 1211" d="M2570.711,1144.758a1.443,1.443,0,0,0-1.443,1.444v6.363a1.442,1.442,0,0,0,2.885,0V1146.2A1.443,1.443,0,0,0,2570.711,1144.758Z" transform="translate(-2569.268 -1144.758)" fill="#f3c04c"/>
      </g>
    </g>
    <g id="Group_501" data-name="Group 501" transform="translate(0 8.749)">
      <g id="Group_499" data-name="Group 499" transform="translate(12.147 0)">
        <g id="Group_498" data-name="Group 498">
          <path id="Path_1212" data-name="Path 1212" d="M2578.8,1142.995h-5.715a1.442,1.442,0,1,0,0,2.885h5.715a1.442,1.442,0,1,0,0-2.885Z" transform="translate(-2571.645 -1142.995)" fill="#f3c04c"/>
        </g>
      </g>
      <g id="Group_500" data-name="Group 500" transform="translate(0 0)">
        <path id="Path_1213" data-name="Path 1213" d="M2569.827,1142.995h-5.716a1.442,1.442,0,1,0,0,2.885h5.716a1.442,1.442,0,0,0,0-2.885Z" transform="translate(-2562.667 -1142.995)" fill="#f3c04c"/>
      </g>
    </g>
  </g>
  <g id="Group_514" data-name="Group 514" transform="translate(35.783 87.337)">
    <g id="Group_513" data-name="Group 513" transform="translate(0 0)">
      <g id="Group_507" data-name="Group 507" transform="translate(8.931)">
        <g id="Group_504" data-name="Group 504" transform="translate(0 11.133)">
          <g id="Group_503" data-name="Group 503">
            <path id="Path_1214" data-name="Path 1214" d="M2566.223,1099.632a1.444,1.444,0,0,0-1.444,1.444v6.362a1.443,1.443,0,0,0,2.886,0v-6.362A1.444,1.444,0,0,0,2566.223,1099.632Z" transform="translate(-2564.779 -1099.632)" fill="#ef4923"/>
          </g>
        </g>
        <g id="Group_506" data-name="Group 506">
          <g id="Group_505" data-name="Group 505">
            <path id="Path_1215" data-name="Path 1215" d="M2566.223,1107.861a1.443,1.443,0,0,0-1.444,1.442v6.362a1.443,1.443,0,0,0,2.886,0V1109.3A1.442,1.442,0,0,0,2566.223,1107.861Z" transform="translate(-2564.779 -1107.861)" fill="#ef4923"/>
          </g>
        </g>
      </g>
      <g id="Group_512" data-name="Group 512" transform="translate(0 8.748)">
        <g id="Group_509" data-name="Group 509" transform="translate(12.146 0)">
          <g id="Group_508" data-name="Group 508">
            <path id="Path_1216" data-name="Path 1216" d="M2574.314,1106.1H2568.6a1.443,1.443,0,1,0,0,2.886h5.715a1.443,1.443,0,0,0,0-2.886Z" transform="translate(-2567.155 -1106.097)" fill="#ef4923"/>
          </g>
        </g>
        <g id="Group_511" data-name="Group 511" transform="translate(0 0)">
          <g id="Group_510" data-name="Group 510">
            <path id="Path_1217" data-name="Path 1217" d="M2565.337,1106.1h-5.715a1.443,1.443,0,0,0,0,2.886h5.715a1.443,1.443,0,1,0,0-2.886Z" transform="translate(-2558.179 -1106.097)" fill="#ef4923"/>
          </g>
        </g>
      </g>
    </g>
  </g>
</svg>
