<svg xmlns="http://www.w3.org/2000/svg" width="185.502" height="185.254" viewBox="0 0 185.502 185.254">
  <g id="LogOut_2" data-name="LogOut 2" transform="translate(0.001 0)" style="mix-blend-mode: normal;isolation: isolate">
    <path id="Path_2657" data-name="Path 2657" d="M37.922,57.711l11.1,11.08L31.412,86.417h94.074v15.438H31.412L49.02,119.462l-11.1,11.08L7.047,99.667l-5.311-5.54,5.311-5.54ZM94.61,1.5A90.453,90.453,0,0,1,141.4,14.291a88.031,88.031,0,0,1,33.046,33.046,91.972,91.972,0,0,1,0,93.58A89.831,89.831,0,0,1,141.4,174.209a91.925,91.925,0,0,1-46.79,12.544A90.615,90.615,0,0,1,51.19,175.9a91.716,91.716,0,0,1-32.323-28.476l12.544-8.91a76.819,76.819,0,0,0,63.2,32.8,75.77,75.77,0,0,0,39.08-10.621,74.963,74.963,0,0,0,27.488-27.488,77.205,77.205,0,0,0,0-78.159A74.963,74.963,0,0,0,133.69,27.559a77.49,77.49,0,0,0-75.266-1.694A75.78,75.78,0,0,0,31.412,49.737l-12.544-8.91A91.717,91.717,0,0,1,51.19,12.351,90.616,90.616,0,0,1,94.61,1.5Z" transform="translate(-1.737 -1.5)" fill="#ed6c6c"/>
  </g>
</svg>
