<svg xmlns="http://www.w3.org/2000/svg" width="168.413" height="185.253" viewBox="0 0 168.413 185.253">
  <g id="User_1_Black" data-name="User 1 Black" transform="translate(0.001 0)" style="mix-blend-mode: normal;isolation: isolate">
    <path id="Path_2655" data-name="Path 2655" d="M86.831,2.264a57.688,57.688,0,0,1,29.6,7.891A58.812,58.812,0,0,1,145.785,61.2a58.849,58.849,0,0,1-26.061,48.945,87.667,87.667,0,0,1,26.715,18.169,82.9,82.9,0,0,1,24.6,59.2H154.2a65.257,65.257,0,0,0-9.085-33.817,68.249,68.249,0,0,0-24.463-24.482,65.426,65.426,0,0,0-33.817-9.065,65.426,65.426,0,0,0-33.817,9.065A68.249,68.249,0,0,0,28.551,153.7a65.257,65.257,0,0,0-9.085,33.817H2.625a82.785,82.785,0,0,1,6.583-32.643,81.817,81.817,0,0,1,18.015-26.561,87.666,87.666,0,0,1,26.715-18.169A58.649,58.649,0,0,1,34.864,89.088,57.753,57.753,0,0,1,27.9,61.2,58.741,58.741,0,0,1,57.229,10.155,57.688,57.688,0,0,1,86.831,2.264Zm0,16.841A40.827,40.827,0,0,0,65.64,24.764,42.647,42.647,0,0,0,50.377,40.027,41.11,41.11,0,0,0,44.738,61.2,41.129,41.129,0,0,0,50.377,82.39,42.8,42.8,0,0,0,65.64,97.652a42.509,42.509,0,0,0,42.382,0A42.647,42.647,0,0,0,123.285,82.39,40.96,40.96,0,0,0,128.944,61.2a40.941,40.941,0,0,0-5.659-21.172,42.5,42.5,0,0,0-15.263-15.263A40.827,40.827,0,0,0,86.831,19.105Z" transform="translate(-2.626 -2.264)" fill="#333"/>
  </g>
</svg>
