<svg xmlns="http://www.w3.org/2000/svg" width="168.411" height="185.252" viewBox="0 0 168.411 185.252">
  <g id="User_2_Blue" data-name="User 2 Blue" transform="translate(-0.001 0)" style="mix-blend-mode: normal;isolation: isolate">
    <path id="Path_2655" data-name="Path 2655" d="M86.831,2.264a57.688,57.688,0,0,1,29.6,7.891A58.812,58.812,0,0,1,145.784,61.2a58.848,58.848,0,0,1-26.06,48.945,87.665,87.665,0,0,1,26.715,18.169,82.9,82.9,0,0,1,24.6,59.2H154.2a65.257,65.257,0,0,0-9.085-33.817,68.248,68.248,0,0,0-24.463-24.482,65.425,65.425,0,0,0-33.817-9.065,65.425,65.425,0,0,0-33.817,9.065A68.248,68.248,0,0,0,28.551,153.7a65.257,65.257,0,0,0-9.085,33.817H2.625a82.784,82.784,0,0,1,6.582-32.643,81.817,81.817,0,0,1,18.015-26.561,87.665,87.665,0,0,1,26.715-18.169A58.649,58.649,0,0,1,34.864,89.087,57.752,57.752,0,0,1,27.9,61.2,58.741,58.741,0,0,1,57.229,10.155,57.688,57.688,0,0,1,86.831,2.264Zm0,16.841A40.827,40.827,0,0,0,65.64,24.764,42.647,42.647,0,0,0,50.377,40.026,41.11,41.11,0,0,0,44.737,61.2a41.129,41.129,0,0,0,5.639,21.191A42.8,42.8,0,0,0,65.64,97.652a42.508,42.508,0,0,0,42.382,0,42.647,42.647,0,0,0,15.263-15.263A40.96,40.96,0,0,0,128.943,61.2a40.941,40.941,0,0,0-5.659-21.172,42.5,42.5,0,0,0-15.263-15.263A40.827,40.827,0,0,0,86.831,19.105Z" transform="translate(-2.624 -2.264)" fill="#0092dc"/>
  </g>
</svg>
